<?xml version="1.0" encoding="iso-8859-1"?>
<!-- Generator: Adobe Illustrator 29.5.1, SVG Export Plug-In . SVG Version: 9.03 Build 0)  -->
<svg version="1.1" id="Layer_1" xmlns="http://www.w3.org/2000/svg" xmlns:xlink="http://www.w3.org/1999/xlink" x="0px" y="0px"
	 viewBox="0 0 720 144" style="enable-background:new 0 0 720 144;" xml:space="preserve">
<g>
	<defs>
		<rect id="SVGID_1_" width="720" height="144"/>
	</defs>
	<clipPath id="SVGID_00000168097786595384885450000005023696789029732520_">
		<use xlink:href="#SVGID_1_"  style="overflow:visible;"/>
	</clipPath>
	<path style="clip-path:url(#SVGID_00000168097786595384885450000005023696789029732520_);" d="M72.921,1.3
		C33.757,1.3,2.008,32.959,2.008,72.012s31.749,70.712,70.913,70.712s70.912-31.659,70.912-70.712S112.085,1.3,72.921,1.3"/>
	<path style="clip-path:url(#SVGID_00000168097786595384885450000005023696789029732520_);fill:#FFFFFF;" d="M72.921,2.98
		c38.175,0,69.233,30.968,69.233,69.032s-31.058,69.032-69.233,69.032S3.688,110.076,3.688,72.012S34.746,2.98,72.921,2.98"/>
</g>
<rect x="191.456" y="16.617" width="2" height="111.776"/>
<g>
	<defs>
		<rect id="SVGID_00000034795958401129459080000005290351735400425637_" width="720" height="144"/>
	</defs>
	<clipPath id="SVGID_00000003097542813364104830000000047336428332020922_">
		<use xlink:href="#SVGID_00000034795958401129459080000005290351735400425637_"  style="overflow:visible;"/>
	</clipPath>
	<path style="clip-path:url(#SVGID_00000003097542813364104830000000047336428332020922_);" d="M114.152,102.346v4.129
		c0,0.138-0.046,0.246-0.154,0.323c-0.093,0.077-0.216,0.123-0.37,0.123c-0.092,0-0.231,0-0.385-0.015
		c-0.154-0.015-0.323-0.031-0.478-0.046c-0.154-0.015-0.292-0.062-0.416-0.108c-0.107-0.046-0.169-0.108-0.169-0.169v-4.222
		l-3.605-7.041c-0.123-0.246-0.139-0.416-0.046-0.523c0.092-0.108,0.262-0.17,0.508-0.17c0.154,0,0.308,0,0.478,0.015
		c0.154,0,0.308,0.016,0.446,0.047c0.139,0.015,0.262,0.046,0.355,0.077c0.092,0.031,0.169,0.077,0.2,0.154l2.65,5.408l2.65-5.393
		c0.031-0.061,0.092-0.123,0.2-0.154c0.093-0.031,0.216-0.061,0.355-0.092c0.138-0.016,0.292-0.031,0.446-0.047
		c0.154,0,0.324-0.015,0.478-0.015c0.246,0,0.416,0.046,0.508,0.154c0.077,0.108,0.062,0.277-0.061,0.539L114.152,102.346z
		 M103.615,96.584v9.891c0,0.138-0.046,0.246-0.154,0.323c-0.108,0.077-0.216,0.123-0.354,0.123c-0.093,0-0.231,0-0.401-0.015
		c-0.17-0.015-0.339-0.031-0.493-0.046s-0.293-0.062-0.401-0.108c-0.123-0.046-0.169-0.108-0.169-0.169v-9.984h-3.051
		c-0.123,0-0.215-0.046-0.308-0.139c-0.077-0.092-0.123-0.2-0.123-0.338c0-0.093,0-0.201,0.015-0.355
		c0.016-0.138,0.031-0.292,0.047-0.431c0.015-0.139,0.061-0.262,0.092-0.37c0.046-0.092,0.093-0.154,0.17-0.154h8.165
		c0.123,0,0.216,0.046,0.308,0.139c0.077,0.092,0.123,0.215,0.123,0.339c0,0.092,0,0.2-0.015,0.354s-0.031,0.293-0.046,0.431
		c-0.016,0.139-0.046,0.262-0.093,0.355c-0.046,0.092-0.092,0.154-0.169,0.154H103.615z M96.497,106.475
		c0,0.138-0.046,0.246-0.154,0.323c-0.092,0.077-0.216,0.123-0.37,0.123c-0.092,0-0.231,0-0.4-0.015
		c-0.17-0.015-0.324-0.031-0.493-0.046c-0.154-0.015-0.293-0.062-0.416-0.108c-0.108-0.046-0.17-0.108-0.17-0.169V94.981
		c0-0.061,0.062-0.123,0.17-0.169c0.123-0.046,0.262-0.092,0.416-0.108c0.154-0.015,0.323-0.046,0.493-0.046
		c0.169-0.016,0.292-0.016,0.4-0.016c0.139,0,0.262,0.047,0.37,0.139c0.092,0.093,0.154,0.2,0.154,0.324V106.475z M85.389,104.888
		c0.092,0.015,0.216,0.061,0.401,0.092c0.185,0.047,0.385,0.093,0.631,0.139c0.231,0.046,0.493,0.077,0.786,0.123
		c0.277,0.031,0.57,0.046,0.847,0.046c0.309,0,0.601-0.03,0.878-0.077c0.278-0.046,0.54-0.138,0.755-0.246
		c0.216-0.123,0.401-0.277,0.524-0.462c0.139-0.201,0.201-0.432,0.201-0.724c0-0.401-0.124-0.74-0.386-1.017
		c-0.261-0.278-0.585-0.539-0.97-0.786c-0.385-0.246-0.817-0.493-1.279-0.739c-0.462-0.247-0.878-0.54-1.279-0.863
		c-0.4-0.324-0.724-0.709-0.97-1.156c-0.262-0.447-0.385-0.986-0.385-1.633c0-0.539,0.092-1.001,0.292-1.371
		c0.2-0.37,0.463-0.678,0.801-0.924c0.339-0.232,0.755-0.416,1.218-0.524c0.477-0.108,1.001-0.17,1.571-0.17
		c0.123,0,0.308,0,0.555,0.016c0.246,0.015,0.508,0.03,0.785,0.061c0.278,0.031,0.555,0.062,0.817,0.108
		c0.277,0.046,0.493,0.108,0.647,0.185c0.154,0.062,0.247,0.139,0.277,0.216c0.031,0.077,0.031,0.2,0.016,0.385
		c-0.016,0.293-0.077,0.524-0.185,0.724c-0.093,0.2-0.231,0.277-0.416,0.246c-0.278-0.061-0.586-0.107-0.94-0.169
		c-0.354-0.046-0.755-0.077-1.186-0.077c-0.678,0-1.248,0.108-1.68,0.293c-0.431,0.2-0.647,0.523-0.647,0.986
		c0,0.369,0.124,0.678,0.386,0.939c0.261,0.263,0.585,0.509,0.97,0.74s0.817,0.478,1.279,0.724c0.462,0.247,0.878,0.539,1.279,0.878
		c0.385,0.339,0.724,0.74,0.97,1.202c0.262,0.462,0.385,1.048,0.385,1.71c0,0.632-0.123,1.156-0.354,1.556
		c-0.231,0.416-0.555,0.724-0.94,0.955c-0.385,0.232-0.847,0.386-1.356,0.478c-0.508,0.093-1.047,0.139-1.602,0.139
		c-0.246,0-0.524-0.016-0.801-0.031s-0.539-0.046-0.817-0.077c-0.261-0.031-0.508-0.077-0.754-0.123
		c-0.232-0.047-0.432-0.093-0.601-0.154c-0.17-0.062-0.262-0.124-0.293-0.185c-0.031-0.077-0.046-0.201-0.015-0.37
		c0.03-0.324,0.092-0.601,0.184-0.817C85.112,104.949,85.234,104.842,85.389,104.888 M79.057,96.568H76.76v3.991h2.296
		c0.447,0,0.816-0.031,1.078-0.077c0.278-0.047,0.478-0.139,0.632-0.278c0.154-0.138,0.247-0.308,0.293-0.539
		s0.077-0.539,0.077-0.909v-0.37c0-0.369-0.031-0.678-0.077-0.924c-0.046-0.231-0.154-0.416-0.293-0.555
		c-0.154-0.138-0.354-0.215-0.632-0.277C79.857,96.599,79.504,96.568,79.057,96.568 M74.773,106.567V95.228
		c0-0.123,0.046-0.216,0.154-0.308c0.108-0.077,0.216-0.123,0.37-0.123h3.651c0.755,0,1.402,0.061,1.941,0.169
		c0.539,0.108,0.971,0.308,1.31,0.585c0.339,0.278,0.585,0.648,0.739,1.11c0.155,0.462,0.231,1.032,0.231,1.741v0.37
		c0,0.523-0.046,0.97-0.123,1.355s-0.216,0.724-0.385,1.002c-0.169,0.277-0.416,0.493-0.709,0.662
		c-0.292,0.17-0.647,0.293-1.047,0.385l2.295,3.975c0.124,0.216,0.185,0.37,0.185,0.478c0,0.061-0.031,0.123-0.077,0.169
		c-0.061,0.047-0.123,0.077-0.185,0.093c-0.061,0.015-0.138,0.03-0.2,0.046c-0.077,0-0.123,0.015-0.154,0.015
		c-0.093,0-0.231,0-0.385-0.015c-0.154-0.016-0.308-0.031-0.462-0.062c-0.154-0.03-0.309-0.061-0.432-0.123
		c-0.123-0.062-0.216-0.139-0.277-0.231l-2.434-4.16h-2.034v4.16c0,0.139-0.046,0.231-0.154,0.308
		c-0.093,0.077-0.216,0.123-0.354,0.123c-0.093,0-0.232,0-0.401-0.015c-0.17-0.016-0.324-0.031-0.493-0.046
		c-0.154-0.016-0.293-0.062-0.416-0.108C74.836,106.69,74.773,106.644,74.773,106.567 M65.068,106.382V95.228
		c0-0.139,0.046-0.247,0.154-0.324c0.092-0.077,0.216-0.107,0.37-0.107h6.64c0.123,0,0.231,0.046,0.308,0.154
		c0.077,0.092,0.123,0.215,0.123,0.339c0,0.092,0,0.2-0.015,0.354c-0.016,0.154-0.031,0.293-0.046,0.431
		c-0.016,0.139-0.062,0.262-0.093,0.355c-0.046,0.092-0.108,0.154-0.169,0.154h-5.269v3.204h4.514c0.108,0,0.2,0.047,0.292,0.139
		c0.078,0.092,0.124,0.2,0.124,0.323c0,0.093,0,0.201-0.016,0.355c-0.015,0.154-0.03,0.292-0.046,0.431
		c-0.015,0.139-0.062,0.262-0.092,0.37c-0.047,0.092-0.093,0.154-0.17,0.154h-4.622v3.389h5.161c0.124,0,0.232,0.047,0.309,0.139
		c0.077,0.093,0.123,0.2,0.123,0.339c0,0.092,0,0.2-0.016,0.354c-0.015,0.139-0.03,0.293-0.046,0.432
		c-0.015,0.138-0.061,0.262-0.092,0.37c-0.046,0.107-0.108,0.154-0.17,0.154h-6.501c-0.154,0-0.324-0.031-0.493-0.108
		C65.145,106.536,65.068,106.459,65.068,106.382 M58.998,103.547l2.496-8.581c0.154-0.154,0.339-0.246,0.539-0.293
		c0.2-0.031,0.431-0.061,0.709-0.061c0.107,0,0.231,0,0.338,0.015c0.124,0.015,0.216,0.031,0.293,0.077
		c0.077,0.046,0.139,0.093,0.185,0.17c0.046,0.077,0.031,0.169,0,0.308l-3.836,11.478c-0.016,0.092-0.077,0.154-0.17,0.2
		c-0.092,0.046-0.185,0.061-0.292,0.061c-0.37,0-0.678-0.015-0.925-0.061c-0.246-0.046-0.4-0.108-0.462-0.185l-3.821-11.493
		c-0.031-0.108-0.031-0.201,0-0.278c0.031-0.077,0.077-0.123,0.154-0.169c0.062-0.046,0.139-0.077,0.231-0.093
		c0.077-0.015,0.154-0.03,0.201-0.03c0.169,0,0.339,0,0.508,0.015c0.17,0.015,0.324,0.031,0.478,0.062
		c0.138,0.031,0.262,0.077,0.369,0.123c0.093,0.062,0.17,0.123,0.201,0.216l2.557,8.504c0.046,0.139,0.077,0.277,0.093,0.416
		c0.015,0.154,0.031,0.277,0.061,0.401c0.016-0.124,0.031-0.262,0.046-0.401C58.921,103.809,58.951,103.671,58.998,103.547
		 M52.589,106.475c0,0.138-0.047,0.246-0.154,0.323c-0.093,0.077-0.216,0.123-0.37,0.123c-0.093,0-0.231,0-0.401-0.015
		c-0.169-0.015-0.323-0.031-0.493-0.046c-0.154-0.015-0.293-0.062-0.416-0.108s-0.169-0.108-0.169-0.169V94.981
		c0-0.061,0.061-0.123,0.169-0.169c0.123-0.046,0.247-0.092,0.416-0.108c0.154-0.015,0.324-0.046,0.493-0.046
		c0.17-0.016,0.293-0.016,0.401-0.016c0.138,0,0.262,0.047,0.37,0.139c0.092,0.093,0.154,0.2,0.154,0.324V106.475z M46.518,103.239
		V94.92c0-0.062,0.062-0.123,0.185-0.154c0.124-0.046,0.262-0.077,0.432-0.093c0.169-0.015,0.339-0.031,0.508-0.046
		c0.17-0.015,0.308-0.015,0.401-0.015c0.292,0,0.431,0.169,0.431,0.493v11.37c0,0.138-0.046,0.231-0.154,0.308
		c-0.108,0.077-0.216,0.123-0.339,0.123c-0.092,0-0.2,0-0.354-0.015c-0.154-0.016-0.293-0.016-0.447-0.046
		c-0.154-0.031-0.278-0.062-0.401-0.093c-0.123-0.046-0.2-0.092-0.246-0.154l-5.377-8.273v8.15c0,0.138-0.046,0.246-0.154,0.323
		c-0.092,0.077-0.216,0.123-0.355,0.123c-0.092,0-0.231,0-0.4-0.015c-0.17-0.015-0.339-0.031-0.493-0.046s-0.293-0.062-0.401-0.108
		c-0.123-0.046-0.169-0.108-0.169-0.169V94.981c0-0.061,0.061-0.123,0.169-0.169c0.124-0.046,0.247-0.092,0.401-0.108
		c0.154-0.015,0.308-0.031,0.477-0.046c0.17-0.016,0.293-0.016,0.401-0.016c0.123,0,0.231,0.031,0.308,0.108
		c0.077,0.077,0.154,0.154,0.201,0.247L46.518,103.239z M35.056,102.5v-7.488c0-0.061,0.062-0.123,0.169-0.169
		c0.124-0.046,0.262-0.093,0.416-0.123c0.17-0.031,0.339-0.062,0.493-0.078c0.17-0.015,0.293-0.03,0.401-0.03
		c0.139,0,0.262,0.046,0.354,0.154c0.093,0.108,0.139,0.215,0.139,0.339v7.487c0,0.817-0.092,1.495-0.277,2.049
		c-0.185,0.555-0.447,0.986-0.817,1.341c-0.37,0.339-0.832,0.585-1.386,0.724c-0.555,0.139-1.218,0.215-1.957,0.215h-0.139
		c-0.724,0-1.371-0.076-1.91-0.215c-0.555-0.139-1.002-0.385-1.371-0.724c-0.37-0.339-0.632-0.786-0.817-1.341
		c-0.185-0.539-0.277-1.232-0.277-2.049v-7.58c0-0.061,0.061-0.123,0.169-0.169c0.124-0.046,0.247-0.093,0.416-0.123
		c0.154-0.031,0.324-0.062,0.493-0.078c0.17-0.015,0.308-0.03,0.401-0.03c0.138,0,0.246,0.046,0.354,0.154
		c0.093,0.108,0.154,0.215,0.154,0.339v7.379c0,0.478,0.031,0.879,0.108,1.218c0.077,0.338,0.2,0.616,0.385,0.816
		c0.185,0.216,0.432,0.37,0.74,0.462c0.308,0.093,0.693,0.154,1.155,0.154h0.139c0.478,0,0.863-0.046,1.186-0.154
		c0.308-0.108,0.57-0.262,0.755-0.462c0.185-0.216,0.324-0.478,0.401-0.816C35.025,103.378,35.056,102.978,35.056,102.5
		 M106.742,75.538v14.313h-3.944V67.989h5.5l5.285,13.466V67.989h4.006v21.862h-5.023L106.742,75.538z M95.419,67.989h4.437v21.862
		h-4.437V67.989z M78.395,67.989h4.56v9.506l5.685-9.506h4.76L87.084,78.05L93.4,89.867h-5.284l-5.161-10.631v10.631h-4.56V67.989z
		 M70.967,84.998H64.62l-1.156,4.869h-4.575l6.162-21.878h5.824l6.07,21.878h-4.791L70.967,84.998z M70.06,81.193l-2.188-9.044
		l-2.296,9.044H70.06z M45.625,67.989h11.817v3.713h-7.195v4.668h6.625v3.806h-6.625v5.823h7.21v3.852H45.625V67.989z
		 M35.595,67.989c5.839,0,7.642,3.097,7.642,10.939s-1.818,10.939-7.657,10.939h-7.488V67.989H35.595z M32.683,86.092h2.08
		c3.405,0,3.836-2.003,3.836-7.241c0-5.223-0.431-7.226-3.836-7.226h-2.08V86.092z M81.507,51.366l-9.938-17.24l1.31-2.203
		l11.154,19.443H81.507z M76.808,51.366l-7.611-13.142l1.279-2.157l8.766,15.299H76.808z M72.032,51.366l-5.223-9.013l1.325-2.234
		l6.424,11.231h-2.526V51.366z M67.225,51.366l-2.804-4.869l1.325-2.234l4.052,7.103H67.225z M61.601,51.366l1.71-2.928l1.711,2.928
		H61.601z M59.429,29.889v18.365c0,7.41,6.009,13.419,13.419,13.419c7.411,0,13.419-6.009,13.419-13.419V29.889H59.429z"/>
	<path style="clip-path:url(#SVGID_00000003097542813364104830000000047336428332020922_);" d="M461.372,125.838
		c1.852-1.578,2.778-3.945,2.778-7.102c0-2.059-0.4-3.686-1.2-4.879c-0.8-1.193-2.09-2.345-3.868-3.456l-6.646-4.246
		c-0.726-0.459-1.256-0.985-1.589-1.578c-0.334-0.593-0.501-1.23-0.501-1.912c0-1.111,0.301-1.997,0.901-2.656
		c0.6-0.659,1.411-0.989,2.434-0.989c2.208,0,3.312,1.422,3.312,4.267v0.778h6.735v-1.133c0-3.171-0.811-5.42-2.434-6.746
		c-1.623-1.327-3.983-1.99-7.08-1.99c-3.467,0-6.146,0.76-8.035,2.278c-1.89,1.52-2.834,3.672-2.834,6.458
		c0,2.06,0.385,3.76,1.155,5.101c0.771,1.342,2.446,2.812,5.024,4.413l5.446,3.334c0.741,0.459,1.3,0.993,1.678,1.6
		c0.378,0.608,0.567,1.349,0.567,2.223c0,1.156-0.315,2.049-0.945,2.679c-0.63,0.63-1.53,0.944-2.7,0.944
		c-1.379,0-2.342-0.407-2.89-1.222c-0.549-0.815-0.823-2.045-0.823-3.69v-0.867h-6.979v2.045c0,2.89,0.844,5.064,2.534,6.524
		c1.689,1.46,4.171,2.189,7.446,2.189C456.681,128.205,459.518,127.416,461.372,125.838 M421.439,94.73v32.875h18.294v-5.134
		h-11.425v-9.514h10.203v-5.068h-10.203v-8.091h11.069V94.73H421.439z M396.195,94.73v5.334h7.558v27.541h6.979v-27.541h7.647V94.73
		H396.195z M375.647,94.73v32.875h18.294v-5.134h-11.425v-9.514h10.202v-5.068h-10.202v-8.091h11.069V94.73H375.647z
		 M355.967,113.224h3.423c1.852,0,3.179,0.333,3.979,1c0.8,0.667,1.2,1.867,1.2,3.601c0,1.675-0.363,2.882-1.089,3.623
		c-0.726,0.741-2.304,1.111-4.735,1.111h-2.778V113.224z M355.967,108.178v-8.38h2.956c2.119,0,3.531,0.333,4.235,1
		c0.703,0.667,1.056,1.652,1.056,2.956c0,1.26-0.153,2.138-0.456,2.634c-0.304,0.497-0.76,0.919-1.367,1.267
		c-0.608,0.349-1.534,0.523-2.779,0.523H355.967z M349.143,94.73v32.875h12.248c3.482,0,6.031-0.715,7.646-2.145
		c1.615-1.43,2.423-3.686,2.423-6.768c0-2.549-0.5-4.472-1.5-5.769c-1.001-1.296-2.553-2.092-4.657-2.389
		c1.852-0.385,3.249-1.208,4.19-2.467c0.941-1.26,1.411-2.942,1.411-5.046c0-2.905-0.815-5.013-2.445-6.324
		c-1.63-1.312-4.216-1.967-7.757-1.967H349.143z M332.121,101.065l3.423,14.292h-6.646L332.121,101.065z M328.031,94.73
		l-9.113,32.875h6.801l1.868-7.291h9.358l1.822,7.291h7.247l-8.914-32.875H328.031z M308.967,127.605h6.869V94.729h-6.869V127.605z
		 M289.41,99.798h1.911c2.015,0,3.412,0.277,4.19,0.833s1.334,1.645,1.667,3.268c0.334,1.622,0.501,4.212,0.501,7.769
		c0,3.378-0.193,5.738-0.578,7.079c-0.386,1.342-0.96,2.297-1.723,2.868c-0.764,0.57-2.197,0.856-4.301,0.856h-1.667V99.798z
		 M282.385,94.73v32.875H292.5c3.023,0,5.394-0.47,7.113-1.411c1.719-0.941,2.975-2.416,3.768-4.424s1.189-5.435,1.189-10.28
		c0-3.72-0.155-6.446-0.467-8.18c-0.311-1.734-0.844-3.235-1.6-4.502c-0.756-1.267-1.904-2.263-3.445-2.989
		c-1.542-0.726-3.579-1.089-6.113-1.089H282.385z M257.583,121.003c-0.8,0.86-1.589,1.486-2.367,1.879s-1.679,0.589-2.701,0.589
		c-1.452,0-2.634-0.474-3.545-1.423c-0.912-0.948-1.367-2.193-1.367-3.734c0-0.978,0.255-1.912,0.766-2.801
		c0.512-0.889,1.345-1.793,2.501-2.712L257.583,121.003z M250.359,103.076c-0.386-0.733-0.578-1.418-0.578-2.056
		c0-0.785,0.263-1.452,0.789-2s1.189-0.823,1.989-0.823c0.89,0,1.597,0.252,2.123,0.756s0.789,1.178,0.789,2.023
		c0,0.889-0.255,1.689-0.767,2.4c-0.511,0.712-1.344,1.445-2.5,2.201C251.359,104.643,250.743,103.81,250.359,103.076
		 M260.206,105.188c0.83-1.267,1.245-2.626,1.245-4.079c0-2.178-0.778-3.882-2.334-5.112c-1.556-1.23-3.727-1.845-6.513-1.845
		c-2.638,0-4.761,0.663-6.368,1.989c-1.609,1.326-2.412,3.116-2.412,5.368c0,1.127,0.263,2.268,0.789,3.423
		c0.526,1.156,1.374,2.431,2.545,3.824c-2.238,1.526-3.846,3.012-4.824,4.456c-0.978,1.445-1.467,3.161-1.467,5.146
		c0,3.142,1.008,5.568,3.023,7.28c2.016,1.712,4.861,2.567,8.536,2.567c1.971,0,3.66-0.233,5.068-0.7
		c1.408-0.467,2.771-1.315,4.09-2.545l2.001,2.645h6.735l-4.957-6.779c0.815-1.393,1.389-2.871,1.723-4.435
		c0.333-1.563,0.5-3.56,0.5-5.99v-0.823h-5.557c0.029,0.208,0.044,0.415,0.044,0.622c0,1.053-0.07,2.123-0.211,3.212
		c-0.141,1.09-0.33,1.998-0.567,2.723l-5.135-6.735C258.027,107.859,259.376,106.455,260.206,105.188"/>
	<path style="clip-path:url(#SVGID_00000003097542813364104830000000047336428332020922_);" d="M411.772,51.43v32.876h18.294v-5.135
		h-11.425v-9.514h10.202v-5.068h-10.202v-8.091h11.069V51.43H411.772z M391.63,51.43v32.876h17.161v-5.468h-10.203V51.43H391.63z
		 M363.902,51.43l8.558,20.806v12.07h6.979v-12.07l9.136-20.806h-7.002l-5.246,13.893l-4.912-13.893H363.902z M339.866,51.43v5.335
		h7.558v27.541h6.98V56.765h7.646V51.43H339.866z M334.775,82.539c1.852-1.579,2.779-3.946,2.779-7.102
		c0-2.06-0.401-3.687-1.201-4.88c-0.8-1.192-2.089-2.345-3.867-3.456l-6.647-4.246c-0.726-0.459-1.256-0.985-1.589-1.578
		c-0.334-0.592-0.5-1.23-0.5-1.911c0-1.112,0.3-1.997,0.9-2.657c0.6-0.659,1.412-0.989,2.434-0.989c2.208,0,3.312,1.423,3.312,4.268
		v0.778h6.735v-1.134c0-3.171-0.811-5.42-2.434-6.746c-1.622-1.326-3.982-1.989-7.079-1.989c-3.468,0-6.147,0.759-8.036,2.278
		c-1.889,1.519-2.834,3.671-2.834,6.457c0,2.06,0.385,3.761,1.156,5.102c0.77,1.341,2.445,2.812,5.023,4.412l5.446,3.334
		c0.741,0.46,1.301,0.993,1.678,1.601c0.378,0.607,0.567,1.348,0.567,2.222c0,1.156-0.315,2.049-0.944,2.679
		c-0.63,0.63-1.531,0.945-2.701,0.945c-1.378,0-2.342-0.408-2.89-1.223s-0.822-2.045-0.822-3.69v-0.867h-6.98v2.045
		c0,2.89,0.845,5.065,2.534,6.524c1.689,1.46,4.171,2.19,7.447,2.19C330.085,84.906,332.922,84.117,334.775,82.539 M294.842,51.43
		v32.876h18.294v-5.135h-11.425v-9.514h10.203v-5.068h-10.203v-8.091h11.07V51.43H294.842z M274.663,51.43v32.876h6.913V69.968
		h9.691v-5.045h-9.691v-8.425h10.158V51.43H274.663z M263.009,84.306h6.869V51.43h-6.869V84.306z M242.867,51.43v32.876h17.16
		v-5.468h-10.203V51.43H242.867z"/>
	<path style="clip-path:url(#SVGID_00000003097542813364104830000000047336428332020922_);" d="M686.015,28.529
		c0.08,0,0.151-0.061,0.212-0.182c0.06-0.121,0.11-0.272,0.151-0.453c0.04-0.182,0.07-0.368,0.09-0.56
		c0.02-0.191,0.031-0.367,0.031-0.529c0-0.221-0.071-0.393-0.212-0.514c-0.141-0.121-0.302-0.181-0.484-0.181h-8.345v-7.045h9.917
		c0.081,0,0.152-0.061,0.212-0.182c0.061-0.121,0.111-0.272,0.151-0.453c0.041-0.182,0.071-0.373,0.091-0.575
		c0.02-0.201,0.03-0.383,0.03-0.544c0-0.222-0.071-0.388-0.211-0.499c-0.142-0.111-0.303-0.166-0.484-0.166h-11.43
		c-0.665,0-0.998,0.211-0.998,0.635v20.924c0,0.081,0.071,0.156,0.212,0.226c0.141,0.071,0.318,0.126,0.529,0.167
		c0.212,0.04,0.434,0.075,0.665,0.106c0.232,0.03,0.428,0.045,0.59,0.045c0.222,0,0.398-0.086,0.529-0.257s0.197-0.368,0.197-0.59
		v-9.373H686.015z M656.322,21.756c0.192-0.746,0.514-1.346,0.968-1.799c0.454-0.454,1.048-0.776,1.784-0.968
		c0.736-0.191,1.648-0.287,2.736-0.287h0.242c1.089,0,1.996,0.096,2.722,0.287c0.725,0.192,1.315,0.514,1.768,0.968
		c0.454,0.453,0.776,1.053,0.968,1.799c0.191,0.746,0.287,1.673,0.287,2.782v5.956c0,1.109-0.096,2.037-0.287,2.782
		c-0.192,0.746-0.514,1.346-0.968,1.799c-0.453,0.454-1.043,0.776-1.768,0.968c-0.726,0.192-1.633,0.287-2.722,0.287h-0.242
		c-1.088,0-2-0.095-2.736-0.287c-0.736-0.192-1.33-0.514-1.784-0.968c-0.454-0.453-0.776-1.053-0.968-1.799
		c-0.191-0.745-0.287-1.673-0.287-2.782v-5.956C656.035,23.429,656.131,22.502,656.322,21.756 M665.802,38.341
		c1.068-0.272,1.955-0.726,2.661-1.361c0.705-0.635,1.234-1.471,1.587-2.51c0.352-1.038,0.529-2.323,0.529-3.855v-6.198
		c0-1.532-0.177-2.817-0.529-3.856c-0.353-1.038-0.882-1.874-1.587-2.509c-0.706-0.635-1.593-1.089-2.661-1.361
		c-1.069-0.272-2.319-0.408-3.75-0.408h-0.242c-1.451,0-2.711,0.136-3.779,0.408c-1.069,0.272-1.956,0.726-2.661,1.361
		c-0.706,0.635-1.235,1.471-1.588,2.509c-0.352,1.039-0.529,2.324-0.529,3.856v6.198c0,1.532,0.177,2.817,0.529,3.855
		c0.353,1.039,0.882,1.875,1.588,2.51c0.705,0.635,1.592,1.089,2.661,1.361c1.068,0.272,2.328,0.408,3.779,0.408h0.242
		C663.483,38.749,664.733,38.613,665.802,38.341 M643.367,19.065c0.08,0,0.151-0.061,0.211-0.182
		c0.061-0.121,0.116-0.272,0.167-0.453c0.05-0.182,0.085-0.373,0.105-0.575c0.02-0.201,0.031-0.383,0.031-0.544
		c0-0.201-0.076-0.363-0.227-0.484s-0.328-0.181-0.529-0.181H628.46c-0.101,0-0.182,0.065-0.242,0.196
		c-0.061,0.132-0.111,0.287-0.151,0.469c-0.041,0.181-0.071,0.373-0.091,0.574c-0.02,0.202-0.03,0.374-0.03,0.514
		c0,0.202,0.07,0.363,0.211,0.484s0.323,0.182,0.545,0.182h5.835v19.17c0,0.101,0.071,0.181,0.212,0.242
		c0.141,0.06,0.318,0.11,0.529,0.151c0.212,0.04,0.433,0.07,0.665,0.091c0.232,0.02,0.428,0.03,0.59,0.03
		c0.222,0,0.398-0.081,0.529-0.242c0.131-0.161,0.197-0.352,0.197-0.574V19.065H643.367z M611.17,16.797
		c-0.101-0.141-0.211-0.262-0.332-0.363c-0.121-0.101-0.263-0.151-0.424-0.151c-0.181,0-0.378,0.01-0.589,0.03
		c-0.212,0.02-0.419,0.056-0.62,0.106c-0.202,0.05-0.368,0.111-0.499,0.181c-0.131,0.071-0.197,0.147-0.197,0.227v21.408
		c0,0.101,0.071,0.181,0.212,0.242c0.141,0.06,0.312,0.11,0.514,0.151c0.201,0.04,0.413,0.07,0.635,0.091
		c0.222,0.02,0.413,0.03,0.575,0.03c0.221,0,0.397-0.081,0.529-0.242c0.131-0.161,0.196-0.352,0.196-0.574v-16.54l10.855,16.872
		c0.061,0.081,0.167,0.151,0.318,0.212c0.151,0.06,0.327,0.11,0.529,0.151c0.201,0.04,0.403,0.07,0.605,0.091
		c0.201,0.02,0.373,0.03,0.514,0.03c0.201,0,0.367-0.076,0.499-0.227c0.131-0.151,0.196-0.337,0.196-0.559V17.129
		c0-0.241-0.045-0.443-0.136-0.604c-0.091-0.161-0.247-0.242-0.468-0.242c-0.182,0-0.394,0.01-0.635,0.03
		c-0.242,0.02-0.469,0.051-0.681,0.091c-0.211,0.04-0.388,0.091-0.529,0.151c-0.141,0.06-0.212,0.131-0.212,0.212v16.932
		L611.17,16.797z M591.906,38.235c0.282,0.101,0.555,0.151,0.817,0.151h11.399c0.08,0,0.151-0.06,0.212-0.181
		c0.06-0.121,0.11-0.272,0.151-0.454c0.04-0.181,0.07-0.373,0.091-0.574c0.02-0.202,0.03-0.383,0.03-0.545
		c0-0.201-0.071-0.362-0.212-0.483c-0.141-0.121-0.302-0.182-0.483-0.182h-9.707v-7.438h8.981c0.08,0,0.151-0.061,0.211-0.182
		c0.061-0.121,0.116-0.272,0.167-0.453c0.05-0.182,0.085-0.373,0.106-0.575c0.019-0.201,0.03-0.372,0.03-0.514
		c0-0.221-0.071-0.393-0.212-0.514c-0.141-0.121-0.313-0.181-0.514-0.181h-8.769v-7.045h9.918c0.08,0,0.151-0.061,0.212-0.182
		c0.06-0.121,0.11-0.272,0.151-0.453c0.04-0.182,0.07-0.373,0.091-0.575c0.02-0.201,0.03-0.383,0.03-0.544
		c0-0.222-0.071-0.388-0.212-0.499s-0.302-0.166-0.483-0.166h-11.702c-0.484,0-0.726,0.262-0.726,0.786v20.41
		C591.483,38.003,591.624,38.134,591.906,38.235 M585.142,38.477c0.131,0.08,0.292,0.141,0.484,0.181
		c0.191,0.04,0.403,0.065,0.635,0.076c0.232,0.01,0.458,0.015,0.681,0.015c0.161,0,0.332-0.045,0.514-0.136
		c0.181-0.091,0.241-0.297,0.181-0.62l-4.354-21.196c-0.041-0.141-0.121-0.262-0.242-0.363c-0.121-0.101-0.323-0.151-0.605-0.151
		c-0.262,0-0.589,0.035-0.983,0.106c-0.393,0.071-0.63,0.207-0.71,0.408l-6.199,16.63c-0.101,0.283-0.192,0.575-0.272,0.877
		c-0.081,0.303-0.141,0.575-0.181,0.817c-0.041-0.242-0.101-0.519-0.182-0.832c-0.08-0.312-0.171-0.609-0.272-0.892l-6.259-16.6
		c-0.141-0.343-0.413-0.514-0.816-0.514c-0.162,0-0.343,0.005-0.545,0.015c-0.201,0.01-0.388,0.035-0.559,0.076
		c-0.171,0.04-0.317,0.095-0.438,0.166c-0.121,0.071-0.192,0.156-0.212,0.257l-4.445,21.196c-0.06,0.302,0.01,0.504,0.212,0.605
		c0.201,0.1,0.363,0.151,0.484,0.151c0.201,0,0.423-0.005,0.665-0.015c0.242-0.011,0.458-0.041,0.65-0.091
		c0.191-0.05,0.358-0.111,0.499-0.181c0.141-0.071,0.221-0.167,0.242-0.288l3.235-16.207c0.04-0.1,0.07-0.236,0.091-0.408
		c0.02-0.171,0.04-0.348,0.06-0.529c0.02,0.162,0.056,0.333,0.106,0.514c0.05,0.182,0.096,0.323,0.136,0.423l5.987,16.177
		c0.04,0.121,0.126,0.222,0.257,0.303c0.131,0.08,0.277,0.14,0.439,0.181c0.161,0.04,0.327,0.07,0.498,0.091
		c0.171,0.02,0.328,0.03,0.469,0.03c0.504,0,0.826-0.202,0.968-0.605l5.956-16.177c0.041-0.1,0.086-0.257,0.136-0.468
		c0.051-0.212,0.086-0.368,0.106-0.469c0.02,0.162,0.046,0.333,0.076,0.514c0.03,0.182,0.055,0.323,0.075,0.423l3.206,16.207
		C584.935,38.295,585.011,38.396,585.142,38.477 M559.09,19.065c0.081,0,0.152-0.061,0.212-0.182
		c0.061-0.121,0.116-0.272,0.166-0.453c0.05-0.182,0.086-0.373,0.106-0.575c0.02-0.201,0.03-0.383,0.03-0.544
		c0-0.201-0.075-0.363-0.226-0.484s-0.328-0.181-0.529-0.181h-14.665c-0.101,0-0.182,0.065-0.242,0.196
		c-0.061,0.132-0.111,0.287-0.151,0.469c-0.041,0.181-0.071,0.373-0.091,0.574c-0.021,0.202-0.03,0.374-0.03,0.514
		c0,0.202,0.07,0.363,0.211,0.484s0.322,0.182,0.544,0.182h5.836v19.17c0,0.101,0.071,0.181,0.212,0.242
		c0.141,0.06,0.317,0.11,0.529,0.151c0.212,0.04,0.433,0.07,0.665,0.091c0.232,0.02,0.428,0.03,0.59,0.03
		c0.221,0,0.398-0.081,0.529-0.242c0.131-0.161,0.197-0.352,0.197-0.574V19.065H559.09z M536.102,19.201
		c0.574,0.111,1.017,0.312,1.33,0.604c0.312,0.293,0.529,0.696,0.65,1.21c0.121,0.514,0.182,1.174,0.182,1.98v0.515
		c0,0.806-0.061,1.466-0.182,1.98c-0.121,0.514-0.338,0.912-0.65,1.194c-0.313,0.283-0.756,0.479-1.33,0.59
		c-0.575,0.111-1.316,0.166-2.223,0.166h-4.656v-8.406h4.656C534.786,19.034,535.527,19.09,536.102,19.201 M526.728,38.447
		c0.151,0.06,0.333,0.115,0.545,0.166c0.211,0.05,0.428,0.085,0.65,0.106c0.221,0.02,0.413,0.03,0.574,0.03
		c0.222,0,0.398-0.076,0.529-0.227s0.197-0.337,0.197-0.559v-8.104h4.535l4.596,8.074c0.081,0.161,0.212,0.297,0.393,0.408
		c0.182,0.11,0.378,0.196,0.59,0.257c0.212,0.06,0.428,0.1,0.65,0.121c0.222,0.02,0.413,0.03,0.575,0.03
		c0.141,0,0.317-0.03,0.529-0.091c0.211-0.06,0.317-0.192,0.317-0.393c0-0.201-0.09-0.443-0.272-0.726l-4.475-7.952
		c0.847-0.121,1.547-0.332,2.102-0.635c0.554-0.302,1.002-0.695,1.345-1.179c0.343-0.484,0.585-1.078,0.726-1.784
		c0.141-0.705,0.212-1.532,0.212-2.479v-0.515c0-1.209-0.121-2.222-0.363-3.038c-0.242-0.817-0.646-1.472-1.21-1.966
		c-0.564-0.493-1.315-0.846-2.253-1.058c-0.937-0.212-2.091-0.318-3.462-0.318h-6.501c-0.222,0-0.403,0.076-0.544,0.227
		c-0.141,0.151-0.212,0.338-0.212,0.56v20.803C526.501,38.306,526.577,38.386,526.728,38.447 M514.298,20.304
		c0.02-0.201,0.05-0.382,0.091-0.544c0,0.101,0.025,0.283,0.075,0.544c0.05,0.263,0.096,0.444,0.136,0.545l2.903,8.799h-6.259
		l2.933-8.799C514.237,20.688,514.278,20.506,514.298,20.304 M520.92,38.643c0.342,0.071,0.796,0.106,1.361,0.106
		c0.181,0,0.357-0.035,0.529-0.106c0.171-0.071,0.257-0.196,0.257-0.378c0-0.121-0.011-0.211-0.031-0.272l-7.256-21.136
		c-0.121-0.382-0.353-0.574-0.696-0.574c-0.383,0-0.801,0.035-1.255,0.106c-0.453,0.071-0.721,0.217-0.801,0.438l-7.287,21.166
		c-0.041,0.121-0.061,0.212-0.061,0.272c0,0.182,0.086,0.307,0.257,0.378c0.171,0.071,0.358,0.106,0.56,0.106
		c0.463,0,0.881-0.02,1.255-0.06c0.372-0.041,0.599-0.182,0.68-0.424l2.117-6.259h7.68l2.026,6.138
		C520.355,38.406,520.577,38.572,520.92,38.643 M499.772,19.231c0.585,0.111,1.043,0.313,1.376,0.605s0.564,0.695,0.695,1.209
		c0.131,0.514,0.197,1.164,0.197,1.95v0.515c0,0.786-0.066,1.436-0.197,1.95c-0.131,0.514-0.362,0.917-0.695,1.209
		c-0.333,0.293-0.791,0.494-1.376,0.605c-0.585,0.111-1.33,0.166-2.237,0.166h-4.536v-8.375h4.536
		C498.442,19.065,499.187,19.12,499.772,19.231 M490.504,38.447c0.152,0.06,0.333,0.115,0.545,0.166
		c0.211,0.05,0.428,0.085,0.65,0.106c0.221,0.02,0.413,0.03,0.574,0.03c0.222,0,0.398-0.076,0.529-0.227
		c0.131-0.151,0.197-0.337,0.197-0.559v-8.104h4.536c1.35,0,2.489-0.095,3.416-0.287c0.927-0.191,1.679-0.529,2.253-1.013
		c0.574-0.484,0.987-1.134,1.24-1.95c0.252-0.817,0.378-1.849,0.378-3.099v-0.515c0-1.209-0.121-2.222-0.363-3.038
		c-0.242-0.817-0.646-1.467-1.21-1.951c-0.564-0.483-1.315-0.831-2.252-1.043c-0.938-0.211-2.092-0.317-3.462-0.317h-6.501
		c-0.222,0-0.404,0.045-0.545,0.136c-0.141,0.09-0.211,0.307-0.211,0.65v20.773C490.278,38.306,490.353,38.386,490.504,38.447
		 M473.705,38.235c0.282,0.101,0.554,0.151,0.816,0.151h11.4c0.08,0,0.151-0.06,0.211-0.181c0.061-0.121,0.111-0.272,0.151-0.454
		c0.041-0.181,0.071-0.373,0.091-0.574c0.02-0.202,0.03-0.383,0.03-0.545c0-0.201-0.07-0.362-0.211-0.483
		c-0.141-0.121-0.303-0.182-0.484-0.182h-9.706v-7.438h8.98c0.081,0,0.152-0.061,0.212-0.182c0.06-0.121,0.116-0.272,0.166-0.453
		c0.05-0.182,0.086-0.373,0.106-0.575c0.02-0.201,0.03-0.372,0.03-0.514c0-0.221-0.071-0.393-0.211-0.514
		c-0.142-0.121-0.313-0.181-0.514-0.181h-8.769v-7.045h9.918c0.08,0,0.151-0.061,0.211-0.182c0.061-0.121,0.111-0.272,0.151-0.453
		c0.041-0.182,0.071-0.373,0.091-0.575c0.02-0.201,0.03-0.383,0.03-0.544c0-0.222-0.07-0.388-0.211-0.499s-0.303-0.166-0.484-0.166
		h-11.702c-0.484,0-0.725,0.262-0.725,0.786v20.41C473.282,38.003,473.422,38.134,473.705,38.235 M463.346,19.352
		c0.726,0.212,1.315,0.559,1.769,1.043c0.453,0.484,0.776,1.114,0.967,1.89c0.192,0.776,0.288,1.719,0.288,2.827v4.778
		c0,1.108-0.096,2.051-0.288,2.827c-0.191,0.776-0.514,1.406-0.967,1.89c-0.454,0.483-1.043,0.831-1.769,1.043
		c-0.726,0.211-1.633,0.317-2.721,0.317h-4.143V19.034h4.143C461.713,19.034,462.62,19.14,463.346,19.352 M454.033,16.797
		c-0.181,0.121-0.272,0.323-0.272,0.605v20.44c0,0.161,0.136,0.292,0.408,0.393c0.272,0.101,0.549,0.151,0.832,0.151h5.624
		c1.451,0,2.711-0.136,3.779-0.408c1.069-0.272,1.955-0.726,2.661-1.361s1.23-1.471,1.573-2.509
		c0.342-1.038,0.514-2.323,0.514-3.856v-5.473c0-1.531-0.172-2.816-0.514-3.855c-0.343-1.038-0.867-1.874-1.573-2.509
		c-0.706-0.635-1.592-1.094-2.661-1.376c-1.068-0.282-2.328-0.424-3.779-0.424h-5.987C454.416,16.615,454.214,16.676,454.033,16.797
		 M428.483,16.797c-0.101-0.141-0.211-0.262-0.332-0.363c-0.121-0.101-0.263-0.151-0.424-0.151c-0.181,0-0.378,0.01-0.589,0.03
		c-0.212,0.02-0.419,0.056-0.62,0.106c-0.202,0.05-0.368,0.111-0.499,0.181c-0.131,0.071-0.197,0.147-0.197,0.227v21.408
		c0,0.101,0.071,0.181,0.212,0.242c0.141,0.06,0.312,0.11,0.514,0.151c0.201,0.04,0.413,0.07,0.635,0.091
		c0.222,0.02,0.413,0.03,0.575,0.03c0.221,0,0.397-0.081,0.529-0.242c0.131-0.161,0.196-0.352,0.196-0.574v-16.54l10.855,16.872
		c0.061,0.081,0.167,0.151,0.318,0.212c0.151,0.06,0.327,0.11,0.529,0.151c0.201,0.04,0.403,0.07,0.605,0.091
		c0.201,0.02,0.373,0.03,0.514,0.03c0.201,0,0.367-0.076,0.499-0.227c0.131-0.151,0.196-0.337,0.196-0.559V17.129
		c0-0.241-0.045-0.443-0.136-0.604c-0.091-0.161-0.247-0.242-0.468-0.242c-0.182,0-0.394,0.01-0.635,0.03
		c-0.242,0.02-0.469,0.051-0.681,0.091c-0.211,0.04-0.388,0.091-0.529,0.151c-0.141,0.06-0.212,0.131-0.212,0.212v16.932
		L428.483,16.797z M421.333,17.099c0-0.221-0.066-0.413-0.197-0.574c-0.131-0.161-0.308-0.242-0.529-0.242
		c-0.182,0-0.383,0.01-0.605,0.03c-0.222,0.02-0.438,0.056-0.65,0.106c-0.212,0.05-0.388,0.111-0.529,0.181
		c-0.141,0.071-0.212,0.147-0.212,0.227v21.408c0,0.101,0.071,0.181,0.212,0.242c0.141,0.06,0.317,0.11,0.529,0.151
		c0.212,0.04,0.428,0.07,0.65,0.091c0.222,0.02,0.423,0.03,0.605,0.03c0.221,0,0.398-0.081,0.529-0.242s0.197-0.352,0.197-0.574
		V17.099z M402.174,27.35l10.069,10.855c0.222,0.242,0.534,0.393,0.938,0.453c0.403,0.061,0.836,0.091,1.3,0.091
		c0.141,0,0.302-0.02,0.484-0.06c0.181-0.041,0.272-0.162,0.272-0.363c0-0.222-0.162-0.504-0.484-0.847l-9.706-10.432l8.859-9.494
		c0.343-0.363,0.514-0.645,0.514-0.847c0-0.201-0.09-0.322-0.272-0.363c-0.181-0.04-0.353-0.06-0.514-0.06
		c-0.443,0-0.872,0.03-1.285,0.091c-0.413,0.06-0.731,0.211-0.952,0.453l-9.223,9.948v-9.676c0-0.221-0.065-0.413-0.196-0.574
		c-0.131-0.161-0.308-0.242-0.529-0.242c-0.182,0-0.383,0.01-0.605,0.03c-0.222,0.02-0.438,0.056-0.65,0.106
		c-0.212,0.05-0.388,0.111-0.529,0.181c-0.142,0.071-0.212,0.147-0.212,0.227v21.408c0,0.101,0.07,0.181,0.212,0.242
		c0.141,0.06,0.317,0.11,0.529,0.151c0.212,0.04,0.428,0.07,0.65,0.091c0.222,0.02,0.423,0.03,0.605,0.03
		c0.221,0,0.398-0.081,0.529-0.242s0.196-0.352,0.196-0.574V27.35z M387.234,20.304c0.02-0.201,0.051-0.382,0.091-0.544
		c0,0.101,0.025,0.283,0.076,0.544c0.05,0.263,0.095,0.444,0.136,0.545l2.903,8.799h-6.259l2.933-8.799
		C387.174,20.688,387.214,20.506,387.234,20.304 M393.856,38.643c0.343,0.071,0.797,0.106,1.361,0.106
		c0.181,0,0.358-0.035,0.529-0.106c0.171-0.071,0.257-0.196,0.257-0.378c0-0.121-0.01-0.211-0.03-0.272l-7.257-21.136
		c-0.121-0.382-0.353-0.574-0.695-0.574c-0.384,0-0.802,0.035-1.255,0.106c-0.454,0.071-0.721,0.217-0.801,0.438l-7.288,21.166
		c-0.04,0.121-0.06,0.212-0.06,0.272c0,0.182,0.085,0.307,0.257,0.378c0.171,0.071,0.358,0.106,0.559,0.106
		c0.464,0,0.882-0.02,1.255-0.06c0.373-0.041,0.6-0.182,0.681-0.424l2.116-6.259h7.68l2.026,6.138
		C393.292,38.406,393.513,38.572,393.856,38.643 M362.854,38.235c0.283,0.101,0.555,0.151,0.817,0.151h11.399
		c0.081,0,0.151-0.06,0.212-0.181c0.06-0.121,0.11-0.272,0.151-0.454c0.04-0.181,0.071-0.373,0.091-0.574
		c0.02-0.202,0.03-0.383,0.03-0.545c0-0.201-0.071-0.362-0.212-0.483c-0.141-0.121-0.302-0.182-0.483-0.182h-9.706v-7.438h8.98
		c0.08,0,0.151-0.061,0.212-0.182c0.06-0.121,0.115-0.272,0.166-0.453c0.05-0.182,0.085-0.373,0.106-0.575
		c0.02-0.201,0.03-0.372,0.03-0.514c0-0.221-0.071-0.393-0.212-0.514c-0.141-0.121-0.312-0.181-0.514-0.181h-8.768v-7.045h9.917
		c0.081,0,0.151-0.061,0.212-0.182c0.06-0.121,0.11-0.272,0.151-0.453c0.04-0.182,0.071-0.373,0.091-0.575
		c0.02-0.201,0.03-0.383,0.03-0.544c0-0.222-0.071-0.388-0.212-0.499s-0.302-0.166-0.483-0.166h-11.702
		c-0.484,0-0.726,0.262-0.726,0.786v20.41C362.431,38.003,362.572,38.134,362.854,38.235 M352.496,19.352
		c0.725,0.212,1.315,0.559,1.769,1.043c0.453,0.484,0.775,1.114,0.967,1.89c0.191,0.776,0.287,1.719,0.287,2.827v4.778
		c0,1.108-0.096,2.051-0.287,2.827c-0.192,0.776-0.514,1.406-0.967,1.89c-0.454,0.483-1.044,0.831-1.769,1.043
		c-0.726,0.211-1.633,0.317-2.722,0.317h-4.142V19.034h4.142C350.863,19.034,351.77,19.14,352.496,19.352 M343.183,16.797
		c-0.182,0.121-0.272,0.323-0.272,0.605v20.44c0,0.161,0.136,0.292,0.408,0.393c0.272,0.101,0.549,0.151,0.831,0.151h5.624
		c1.452,0,2.711-0.136,3.78-0.408c1.068-0.272,1.955-0.726,2.661-1.361c0.705-0.635,1.229-1.471,1.572-2.509
		c0.343-1.038,0.514-2.323,0.514-3.856v-5.473c0-1.531-0.171-2.816-0.514-3.855c-0.343-1.038-0.867-1.874-1.572-2.509
		c-0.706-0.635-1.593-1.094-2.661-1.376c-1.069-0.282-2.328-0.424-3.78-0.424h-5.987C343.565,16.615,343.364,16.676,343.183,16.797
		 M326.84,19.201c0.575,0.111,1.018,0.312,1.331,0.604c0.312,0.293,0.529,0.696,0.65,1.21s0.181,1.174,0.181,1.98v0.515
		c0,0.806-0.06,1.466-0.181,1.98s-0.338,0.912-0.65,1.194c-0.313,0.283-0.756,0.479-1.331,0.59
		c-0.574,0.111-1.315,0.166-2.222,0.166h-4.657v-8.406h4.657C325.525,19.034,326.266,19.09,326.84,19.201 M317.467,38.447
		c0.151,0.06,0.333,0.115,0.544,0.166c0.212,0.05,0.428,0.085,0.65,0.106c0.222,0.02,0.413,0.03,0.575,0.03
		c0.221,0,0.398-0.076,0.529-0.227s0.196-0.337,0.196-0.559v-8.104h4.536l4.596,8.074c0.08,0.161,0.212,0.297,0.393,0.408
		c0.182,0.11,0.378,0.196,0.59,0.257c0.211,0.06,0.428,0.1,0.65,0.121c0.221,0.02,0.413,0.03,0.574,0.03
		c0.141,0,0.318-0.03,0.53-0.091c0.211-0.06,0.317-0.192,0.317-0.393c0-0.201-0.091-0.443-0.272-0.726l-4.475-7.952
		c0.846-0.121,1.547-0.332,2.101-0.635c0.554-0.302,1.003-0.695,1.346-1.179c0.342-0.484,0.584-1.078,0.726-1.784
		c0.14-0.705,0.211-1.532,0.211-2.479v-0.515c0-1.209-0.121-2.222-0.363-3.038c-0.242-0.817-0.645-1.472-1.209-1.966
		c-0.565-0.493-1.315-0.846-2.253-1.058c-0.937-0.212-2.091-0.318-3.462-0.318h-6.501c-0.222,0-0.403,0.076-0.544,0.227
		c-0.141,0.151-0.212,0.338-0.212,0.56v20.803C317.24,38.306,317.316,38.386,317.467,38.447 M300.667,38.235
		c0.282,0.101,0.555,0.151,0.817,0.151h11.399c0.08,0,0.151-0.06,0.212-0.181c0.06-0.121,0.11-0.272,0.151-0.454
		c0.04-0.181,0.07-0.373,0.091-0.574c0.02-0.202,0.03-0.383,0.03-0.545c0-0.201-0.071-0.362-0.212-0.483
		c-0.141-0.121-0.302-0.182-0.484-0.182h-9.706v-7.438h8.981c0.08,0,0.151-0.061,0.211-0.182c0.061-0.121,0.116-0.272,0.167-0.453
		c0.05-0.182,0.085-0.373,0.106-0.575c0.019-0.201,0.03-0.372,0.03-0.514c0-0.221-0.071-0.393-0.212-0.514
		c-0.141-0.121-0.313-0.181-0.514-0.181h-8.769v-7.045h9.918c0.08,0,0.151-0.061,0.212-0.182c0.06-0.121,0.11-0.272,0.151-0.453
		c0.04-0.182,0.07-0.373,0.091-0.575c0.02-0.201,0.03-0.383,0.03-0.544c0-0.222-0.071-0.388-0.212-0.499
		c-0.141-0.111-0.302-0.166-0.484-0.166H300.97c-0.484,0-0.726,0.262-0.726,0.786v20.41
		C300.244,38.003,300.385,38.134,300.667,38.235 M283.807,27.35l10.069,10.855c0.222,0.242,0.534,0.393,0.938,0.453
		c0.403,0.061,0.836,0.091,1.3,0.091c0.141,0,0.302-0.02,0.484-0.06c0.181-0.041,0.272-0.162,0.272-0.363
		c0-0.222-0.162-0.504-0.484-0.847l-9.706-10.432l8.859-9.494c0.343-0.363,0.514-0.645,0.514-0.847c0-0.201-0.09-0.322-0.272-0.363
		c-0.181-0.04-0.353-0.06-0.514-0.06c-0.444,0-0.872,0.03-1.285,0.091c-0.413,0.06-0.731,0.211-0.952,0.453l-9.223,9.948v-9.676
		c0-0.221-0.065-0.413-0.196-0.574c-0.132-0.161-0.308-0.242-0.529-0.242c-0.182,0-0.384,0.01-0.605,0.03
		c-0.222,0.02-0.439,0.056-0.65,0.106c-0.212,0.05-0.389,0.111-0.529,0.181c-0.142,0.071-0.212,0.147-0.212,0.227v21.408
		c0,0.101,0.07,0.181,0.212,0.242c0.14,0.06,0.317,0.11,0.529,0.151c0.211,0.04,0.428,0.07,0.65,0.091
		c0.221,0.02,0.423,0.03,0.605,0.03c0.221,0,0.397-0.081,0.529-0.242c0.131-0.161,0.196-0.352,0.196-0.574V27.35z M268.867,20.304
		c0.02-0.201,0.05-0.382,0.091-0.544c0,0.101,0.025,0.283,0.076,0.544c0.05,0.263,0.095,0.444,0.136,0.545l2.902,8.799h-6.259
		l2.933-8.799C268.807,20.688,268.847,20.506,268.867,20.304 M275.489,38.643c0.343,0.071,0.796,0.106,1.361,0.106
		c0.181,0,0.358-0.035,0.529-0.106c0.171-0.071,0.257-0.196,0.257-0.378c0-0.121-0.01-0.211-0.03-0.272l-7.257-21.136
		c-0.121-0.382-0.353-0.574-0.695-0.574c-0.384,0-0.802,0.035-1.255,0.106c-0.454,0.071-0.721,0.217-0.802,0.438l-7.287,21.166
		c-0.04,0.121-0.06,0.212-0.06,0.272c0,0.182,0.085,0.307,0.257,0.378c0.171,0.071,0.357,0.106,0.559,0.106
		c0.464,0,0.882-0.02,1.255-0.06c0.373-0.041,0.6-0.182,0.68-0.424l2.117-6.259h7.68l2.026,6.138
		C274.925,38.406,275.146,38.572,275.489,38.643 M252.67,19.277c0.443,0.162,0.796,0.385,1.058,0.668
		c0.262,0.284,0.448,0.633,0.559,1.048c0.111,0.415,0.167,0.876,0.167,1.382v0.243c0,1.194-0.248,2.07-0.741,2.627
		c-0.494,0.556-1.417,0.835-2.767,0.835h-6.168v-7.046h6.229C251.672,19.034,252.226,19.116,252.67,19.277 M254.015,29.103
		c0.575,0.585,0.862,1.533,0.862,2.843v0.604c0,0.666-0.066,1.22-0.197,1.663c-0.131,0.444-0.347,0.792-0.65,1.044
		c-0.302,0.252-0.7,0.433-1.194,0.544c-0.494,0.111-1.094,0.166-1.799,0.166h-6.259v-7.741h6.349
		C252.478,28.226,253.441,28.519,254.015,29.103 M242.268,16.812c-0.141,0.131-0.212,0.328-0.212,0.59v20.44
		c0,0.161,0.136,0.292,0.409,0.393c0.272,0.101,0.549,0.151,0.831,0.151h7.711c1.108,0,2.075-0.1,2.902-0.302
		c0.827-0.201,1.512-0.528,2.056-0.981c0.545-0.453,0.953-1.052,1.225-1.796c0.272-0.745,0.408-1.661,0.408-2.748v-0.604
		c0-0.905-0.106-1.655-0.317-2.249c-0.212-0.594-0.474-1.082-0.786-1.464c-0.313-0.383-0.656-0.664-1.029-0.846
		c-0.373-0.181-0.71-0.302-1.012-0.362c0.382-0.08,0.74-0.227,1.073-0.439c0.333-0.212,0.62-0.49,0.862-0.833
		c0.242-0.343,0.433-0.772,0.574-1.287c0.141-0.515,0.212-1.136,0.212-1.863V22.37c0-0.848-0.096-1.621-0.287-2.317
		c-0.192-0.696-0.525-1.302-0.998-1.817c-0.474-0.515-1.109-0.914-1.905-1.196c-0.797-0.283-1.789-0.425-2.978-0.425h-7.983
		C242.661,16.615,242.409,16.681,242.268,16.812"/>
</g>
</svg>
