<?xml version="1.0" encoding="iso-8859-1"?>
<!-- Generator: Adobe Illustrator 29.5.1, SVG Export Plug-In . SVG Version: 9.03 Build 0)  -->
<svg version="1.1" id="Layer_1" xmlns="http://www.w3.org/2000/svg" xmlns:xlink="http://www.w3.org/1999/xlink" x="0px" y="0px"
	 viewBox="0 0 720 144" style="enable-background:new 0 0 720 144;" xml:space="preserve">
<g>
	<defs>
		<rect id="SVGID_1_" width="720" height="144"/>
	</defs>
	<clipPath id="SVGID_00000013886395536957367770000017331546979216950415_">
		<use xlink:href="#SVGID_1_"  style="overflow:visible;"/>
	</clipPath>
	<path style="clip-path:url(#SVGID_00000013886395536957367770000017331546979216950415_);fill:#FFFFFF;" d="M72.921,1.3
		C33.757,1.3,2.008,32.959,2.008,72.012s31.749,70.712,70.913,70.712s70.912-31.659,70.912-70.712S112.085,1.3,72.921,1.3"/>
	<path style="clip-path:url(#SVGID_00000013886395536957367770000017331546979216950415_);fill:#FFFFFF;" d="M72.921,2.98
		c38.175,0,69.233,30.968,69.233,69.032s-31.058,69.032-69.233,69.032S3.688,110.076,3.688,72.012S34.746,2.98,72.921,2.98"/>
</g>
<rect x="191.456" y="16.617" style="fill:#FFFFFF;" width="2" height="111.776"/>
<g>
	<defs>
		<rect id="SVGID_00000137825830078058387830000011529683777655948953_" width="720" height="144"/>
	</defs>
	<clipPath id="SVGID_00000107549019342359281740000001709293244663730066_">
		<use xlink:href="#SVGID_00000137825830078058387830000011529683777655948953_"  style="overflow:visible;"/>
	</clipPath>
	<path style="clip-path:url(#SVGID_00000107549019342359281740000001709293244663730066_);" d="M114.152,102.346v4.129
		c0,0.138-0.046,0.246-0.154,0.323c-0.093,0.077-0.216,0.123-0.37,0.123c-0.092,0-0.231,0-0.385-0.015
		c-0.154-0.015-0.323-0.031-0.478-0.046c-0.154-0.015-0.292-0.062-0.416-0.108c-0.107-0.046-0.169-0.108-0.169-0.169v-4.222
		l-3.605-7.041c-0.123-0.246-0.139-0.416-0.046-0.523c0.092-0.108,0.262-0.17,0.508-0.17c0.154,0,0.308,0,0.478,0.015
		c0.154,0,0.308,0.016,0.446,0.047c0.139,0.015,0.262,0.046,0.355,0.077c0.092,0.031,0.169,0.077,0.2,0.154l2.65,5.408l2.65-5.393
		c0.031-0.061,0.092-0.123,0.2-0.154c0.093-0.031,0.216-0.061,0.355-0.092c0.138-0.016,0.292-0.031,0.446-0.047
		c0.154,0,0.324-0.015,0.478-0.015c0.246,0,0.416,0.046,0.508,0.154c0.077,0.108,0.062,0.277-0.061,0.539L114.152,102.346z
		 M103.615,96.584v9.891c0,0.138-0.046,0.246-0.154,0.323c-0.108,0.077-0.216,0.123-0.354,0.123c-0.093,0-0.231,0-0.401-0.015
		c-0.17-0.015-0.339-0.031-0.493-0.046s-0.293-0.062-0.401-0.108c-0.123-0.046-0.169-0.108-0.169-0.169v-9.984h-3.051
		c-0.123,0-0.215-0.046-0.308-0.139c-0.077-0.092-0.123-0.2-0.123-0.338c0-0.093,0-0.201,0.015-0.355
		c0.016-0.138,0.031-0.292,0.047-0.431c0.015-0.139,0.061-0.262,0.092-0.37c0.046-0.092,0.093-0.154,0.17-0.154h8.165
		c0.123,0,0.216,0.046,0.308,0.139c0.077,0.092,0.123,0.215,0.123,0.339c0,0.092,0,0.2-0.015,0.354s-0.031,0.293-0.046,0.431
		c-0.016,0.139-0.046,0.262-0.093,0.355c-0.046,0.092-0.092,0.154-0.169,0.154H103.615z M96.497,106.475
		c0,0.138-0.046,0.246-0.154,0.323c-0.092,0.077-0.216,0.123-0.37,0.123c-0.092,0-0.231,0-0.4-0.015
		c-0.17-0.015-0.324-0.031-0.493-0.046c-0.154-0.015-0.293-0.062-0.416-0.108c-0.108-0.046-0.17-0.108-0.17-0.169V94.981
		c0-0.061,0.062-0.123,0.17-0.169c0.123-0.046,0.262-0.092,0.416-0.108c0.154-0.015,0.323-0.046,0.493-0.046
		c0.169-0.016,0.292-0.016,0.4-0.016c0.139,0,0.262,0.047,0.37,0.139c0.092,0.093,0.154,0.2,0.154,0.324V106.475z M85.389,104.888
		c0.092,0.015,0.216,0.061,0.401,0.092c0.185,0.047,0.385,0.093,0.631,0.139c0.231,0.046,0.493,0.077,0.786,0.123
		c0.277,0.031,0.57,0.046,0.847,0.046c0.309,0,0.601-0.03,0.878-0.077c0.278-0.046,0.54-0.138,0.755-0.246
		c0.216-0.123,0.401-0.277,0.524-0.462c0.139-0.201,0.201-0.432,0.201-0.724c0-0.401-0.124-0.74-0.386-1.017
		c-0.261-0.278-0.585-0.539-0.97-0.786c-0.385-0.246-0.817-0.493-1.279-0.739c-0.462-0.247-0.878-0.54-1.279-0.863
		c-0.4-0.324-0.724-0.709-0.97-1.156c-0.262-0.447-0.385-0.986-0.385-1.633c0-0.539,0.092-1.001,0.292-1.371
		c0.2-0.37,0.463-0.678,0.801-0.924c0.339-0.232,0.755-0.416,1.218-0.524c0.477-0.108,1.001-0.17,1.571-0.17
		c0.123,0,0.308,0,0.555,0.016c0.246,0.015,0.508,0.03,0.785,0.061c0.278,0.031,0.555,0.062,0.817,0.108
		c0.277,0.046,0.493,0.108,0.647,0.185c0.154,0.062,0.247,0.139,0.277,0.216c0.031,0.077,0.031,0.2,0.016,0.385
		c-0.016,0.293-0.077,0.524-0.185,0.724c-0.093,0.2-0.231,0.277-0.416,0.246c-0.278-0.061-0.586-0.107-0.94-0.169
		c-0.354-0.046-0.755-0.077-1.186-0.077c-0.678,0-1.248,0.108-1.68,0.293c-0.431,0.2-0.647,0.523-0.647,0.986
		c0,0.369,0.124,0.678,0.386,0.939c0.261,0.263,0.585,0.509,0.97,0.74s0.817,0.478,1.279,0.724c0.462,0.247,0.878,0.539,1.279,0.878
		c0.385,0.339,0.724,0.74,0.97,1.202c0.262,0.462,0.385,1.048,0.385,1.71c0,0.632-0.123,1.156-0.354,1.556
		c-0.231,0.416-0.555,0.724-0.94,0.955c-0.385,0.232-0.847,0.386-1.356,0.478c-0.508,0.093-1.047,0.139-1.602,0.139
		c-0.246,0-0.524-0.016-0.801-0.031s-0.539-0.046-0.817-0.077c-0.261-0.031-0.508-0.077-0.754-0.123
		c-0.232-0.047-0.432-0.093-0.601-0.154c-0.17-0.062-0.262-0.124-0.293-0.185c-0.031-0.077-0.046-0.201-0.015-0.37
		c0.03-0.324,0.092-0.601,0.184-0.817C85.112,104.949,85.234,104.842,85.389,104.888 M79.057,96.568H76.76v3.991h2.296
		c0.447,0,0.816-0.031,1.078-0.077c0.278-0.047,0.478-0.139,0.632-0.278c0.154-0.138,0.247-0.308,0.293-0.539
		s0.077-0.539,0.077-0.909v-0.37c0-0.369-0.031-0.678-0.077-0.924c-0.046-0.231-0.154-0.416-0.293-0.555
		c-0.154-0.138-0.354-0.215-0.632-0.277C79.857,96.599,79.504,96.568,79.057,96.568 M74.773,106.567V95.228
		c0-0.123,0.046-0.216,0.154-0.308c0.108-0.077,0.216-0.123,0.37-0.123h3.651c0.755,0,1.402,0.061,1.941,0.169
		c0.539,0.108,0.971,0.308,1.31,0.585c0.339,0.278,0.585,0.648,0.739,1.11c0.155,0.462,0.231,1.032,0.231,1.741v0.37
		c0,0.523-0.046,0.97-0.123,1.355s-0.216,0.724-0.385,1.002c-0.169,0.277-0.416,0.493-0.709,0.662
		c-0.292,0.17-0.647,0.293-1.047,0.385l2.295,3.975c0.124,0.216,0.185,0.37,0.185,0.478c0,0.061-0.031,0.123-0.077,0.169
		c-0.061,0.047-0.123,0.077-0.185,0.093c-0.061,0.015-0.138,0.03-0.2,0.046c-0.077,0-0.123,0.015-0.154,0.015
		c-0.093,0-0.231,0-0.385-0.015c-0.154-0.016-0.308-0.031-0.462-0.062c-0.154-0.03-0.309-0.061-0.432-0.123
		c-0.123-0.062-0.216-0.139-0.277-0.231l-2.434-4.16h-2.034v4.16c0,0.139-0.046,0.231-0.154,0.308
		c-0.093,0.077-0.216,0.123-0.354,0.123c-0.093,0-0.232,0-0.401-0.015c-0.17-0.016-0.324-0.031-0.493-0.046
		c-0.154-0.016-0.293-0.062-0.416-0.108C74.836,106.69,74.773,106.644,74.773,106.567 M65.068,106.382V95.228
		c0-0.139,0.046-0.247,0.154-0.324c0.092-0.077,0.216-0.107,0.37-0.107h6.64c0.123,0,0.231,0.046,0.308,0.154
		c0.077,0.092,0.123,0.215,0.123,0.339c0,0.092,0,0.2-0.015,0.354c-0.016,0.154-0.031,0.293-0.046,0.431
		c-0.016,0.139-0.062,0.262-0.093,0.355c-0.046,0.092-0.108,0.154-0.169,0.154h-5.269v3.204h4.514c0.108,0,0.2,0.047,0.292,0.139
		c0.078,0.092,0.124,0.2,0.124,0.323c0,0.093,0,0.201-0.016,0.355c-0.015,0.154-0.03,0.292-0.046,0.431
		c-0.015,0.139-0.062,0.262-0.092,0.37c-0.047,0.092-0.093,0.154-0.17,0.154h-4.622v3.389h5.161c0.124,0,0.232,0.047,0.309,0.139
		c0.077,0.093,0.123,0.2,0.123,0.339c0,0.092,0,0.2-0.016,0.354c-0.015,0.139-0.03,0.293-0.046,0.432
		c-0.015,0.138-0.061,0.262-0.092,0.37c-0.046,0.107-0.108,0.154-0.17,0.154h-6.501c-0.154,0-0.324-0.031-0.493-0.108
		C65.145,106.536,65.068,106.459,65.068,106.382 M58.998,103.547l2.496-8.581c0.154-0.154,0.339-0.246,0.539-0.293
		c0.2-0.031,0.431-0.061,0.709-0.061c0.107,0,0.231,0,0.338,0.015c0.124,0.015,0.216,0.031,0.293,0.077
		c0.077,0.046,0.139,0.093,0.185,0.17c0.046,0.077,0.031,0.169,0,0.308l-3.836,11.478c-0.016,0.092-0.077,0.154-0.17,0.2
		c-0.092,0.046-0.185,0.061-0.292,0.061c-0.37,0-0.678-0.015-0.925-0.061c-0.246-0.046-0.4-0.108-0.462-0.185l-3.821-11.493
		c-0.031-0.108-0.031-0.201,0-0.278c0.031-0.077,0.077-0.123,0.154-0.169c0.062-0.046,0.139-0.077,0.231-0.093
		c0.077-0.015,0.154-0.03,0.201-0.03c0.169,0,0.339,0,0.508,0.015c0.17,0.015,0.324,0.031,0.478,0.062
		c0.138,0.031,0.262,0.077,0.369,0.123c0.093,0.062,0.17,0.123,0.201,0.216l2.557,8.504c0.046,0.139,0.077,0.277,0.093,0.416
		c0.015,0.154,0.031,0.277,0.061,0.401c0.016-0.124,0.031-0.262,0.046-0.401C58.921,103.809,58.951,103.671,58.998,103.547
		 M52.589,106.475c0,0.138-0.047,0.246-0.154,0.323c-0.093,0.077-0.216,0.123-0.37,0.123c-0.093,0-0.231,0-0.401-0.015
		c-0.169-0.015-0.323-0.031-0.493-0.046c-0.154-0.015-0.293-0.062-0.416-0.108s-0.169-0.108-0.169-0.169V94.981
		c0-0.061,0.061-0.123,0.169-0.169c0.123-0.046,0.247-0.092,0.416-0.108c0.154-0.015,0.324-0.046,0.493-0.046
		c0.17-0.016,0.293-0.016,0.401-0.016c0.138,0,0.262,0.047,0.37,0.139c0.092,0.093,0.154,0.2,0.154,0.324V106.475z M46.518,103.239
		V94.92c0-0.062,0.062-0.123,0.185-0.154c0.124-0.046,0.262-0.077,0.432-0.093c0.169-0.015,0.339-0.031,0.508-0.046
		c0.17-0.015,0.308-0.015,0.401-0.015c0.292,0,0.431,0.169,0.431,0.493v11.37c0,0.138-0.046,0.231-0.154,0.308
		c-0.108,0.077-0.216,0.123-0.339,0.123c-0.092,0-0.2,0-0.354-0.015c-0.154-0.016-0.293-0.016-0.447-0.046
		c-0.154-0.031-0.278-0.062-0.401-0.093c-0.123-0.046-0.2-0.092-0.246-0.154l-5.377-8.273v8.15c0,0.138-0.046,0.246-0.154,0.323
		c-0.092,0.077-0.216,0.123-0.355,0.123c-0.092,0-0.231,0-0.4-0.015c-0.17-0.015-0.339-0.031-0.493-0.046s-0.293-0.062-0.401-0.108
		c-0.123-0.046-0.169-0.108-0.169-0.169V94.981c0-0.061,0.061-0.123,0.169-0.169c0.124-0.046,0.247-0.092,0.401-0.108
		c0.154-0.015,0.308-0.031,0.477-0.046c0.17-0.016,0.293-0.016,0.401-0.016c0.123,0,0.231,0.031,0.308,0.108
		c0.077,0.077,0.154,0.154,0.201,0.247L46.518,103.239z M35.056,102.5v-7.488c0-0.061,0.062-0.123,0.169-0.169
		c0.124-0.046,0.262-0.093,0.416-0.123c0.17-0.031,0.339-0.062,0.493-0.078c0.17-0.015,0.293-0.03,0.401-0.03
		c0.139,0,0.262,0.046,0.354,0.154c0.093,0.108,0.139,0.215,0.139,0.339v7.487c0,0.817-0.092,1.495-0.277,2.049
		c-0.185,0.555-0.447,0.986-0.817,1.341c-0.37,0.339-0.832,0.585-1.386,0.724c-0.555,0.139-1.218,0.215-1.957,0.215h-0.139
		c-0.724,0-1.371-0.076-1.91-0.215c-0.555-0.139-1.002-0.385-1.371-0.724c-0.37-0.339-0.632-0.786-0.817-1.341
		c-0.185-0.539-0.277-1.232-0.277-2.049v-7.58c0-0.061,0.061-0.123,0.169-0.169c0.124-0.046,0.247-0.093,0.416-0.123
		c0.154-0.031,0.324-0.062,0.493-0.078c0.17-0.015,0.308-0.03,0.401-0.03c0.138,0,0.246,0.046,0.354,0.154
		c0.093,0.108,0.154,0.215,0.154,0.339v7.379c0,0.478,0.031,0.879,0.108,1.218c0.077,0.338,0.2,0.616,0.385,0.816
		c0.185,0.216,0.432,0.37,0.74,0.462c0.308,0.093,0.693,0.154,1.155,0.154h0.139c0.478,0,0.863-0.046,1.186-0.154
		c0.308-0.108,0.57-0.262,0.755-0.462c0.185-0.216,0.324-0.478,0.401-0.816C35.025,103.378,35.056,102.978,35.056,102.5
		 M106.742,75.538v14.313h-3.944V67.989h5.5l5.285,13.466V67.989h4.006v21.862h-5.023L106.742,75.538z M95.419,67.989h4.437v21.862
		h-4.437V67.989z M78.395,67.989h4.56v9.506l5.685-9.506h4.76L87.084,78.05L93.4,89.867h-5.284l-5.161-10.631v10.631h-4.56V67.989z
		 M70.967,84.998H64.62l-1.156,4.869h-4.575l6.162-21.878h5.824l6.07,21.878h-4.791L70.967,84.998z M70.06,81.193l-2.188-9.044
		l-2.296,9.044H70.06z M45.625,67.989h11.817v3.713h-7.195v4.668h6.625v3.806h-6.625v5.823h7.21v3.852H45.625V67.989z
		 M35.595,67.989c5.839,0,7.642,3.097,7.642,10.939s-1.818,10.939-7.657,10.939h-7.488V67.989H35.595z M32.683,86.092h2.08
		c3.405,0,3.836-2.003,3.836-7.241c0-5.223-0.431-7.226-3.836-7.226h-2.08V86.092z M81.507,51.366l-9.938-17.24l1.31-2.203
		l11.154,19.443H81.507z M76.808,51.366l-7.611-13.142l1.279-2.157l8.766,15.299H76.808z M72.032,51.366l-5.223-9.013l1.325-2.234
		l6.424,11.231h-2.526V51.366z M67.225,51.366l-2.804-4.869l1.325-2.234l4.052,7.103H67.225z M61.601,51.366l1.71-2.928l1.711,2.928
		H61.601z M59.429,29.889v18.365c0,7.41,6.009,13.419,13.419,13.419c7.411,0,13.419-6.009,13.419-13.419V29.889H59.429z"/>
	<path style="clip-path:url(#SVGID_00000107549019342359281740000001709293244663730066_);fill:#FFFFFF;" d="M567.864,94.729v32.876
		h6.936v-14.47h7.78v14.47h6.913V94.729h-6.913v13.026h-7.78V94.729H567.864z M563.756,104.11c0-3.393-0.811-5.887-2.434-7.48
		c-1.622-1.593-3.997-2.39-7.124-2.39c-2.667,0-4.79,0.442-6.368,1.323c-1.578,0.882-2.705,2.071-3.379,3.568
		c-0.674,1.497-1.108,3.119-1.3,4.868c-0.193,1.748-0.289,4.156-0.289,7.224c0,3.897,0.181,6.743,0.544,8.536
		c0.363,1.793,0.919,3.267,1.667,4.423c0.749,1.156,1.834,2.075,3.257,2.756c1.423,0.682,3.267,1.023,5.535,1.023
		c3.482,0,6.06-0.874,7.735-2.623s2.512-4.364,2.512-7.847v-0.956h-6.78v0.378c0,2.12-0.3,3.665-0.9,4.635
		c-0.6,0.971-1.486,1.456-2.656,1.456c-1.393,0-2.386-0.634-2.979-1.901c-0.593-1.267-0.919-2.867-0.978-4.801
		s-0.089-3.479-0.089-4.635c0-3.437,0.089-5.89,0.267-7.357c0.178-1.467,0.545-2.679,1.1-3.634c0.556-0.956,1.434-1.434,2.634-1.434
		c1.052,0,1.864,0.411,2.434,1.234c0.571,0.822,0.856,2.159,0.856,4.012v0.622h6.735V104.11z M525.771,99.798h1.467
		c2.089,0,3.452,0.333,4.09,1c0.637,0.667,0.955,1.815,0.955,3.445c0,1.645-0.322,2.838-0.967,3.579
		c-0.644,0.741-1.959,1.111-3.945,1.111h-1.6V99.798z M518.857,94.729v32.876h6.914v-13.604h1.333c2.06,0,3.46,0.353,4.201,1.056
		c0.741,0.704,1.112,2.005,1.112,3.901v5.046c0,0.889,0.052,1.545,0.155,1.967c0.104,0.423,0.297,0.967,0.578,1.634h6.735
		c-0.148-0.444-0.255-1.03-0.322-1.756c-0.066-0.726-0.122-1.489-0.167-2.289l-0.333-5.646c-0.133-2.119-0.604-3.653-1.411-4.602
		c-0.808-0.948-2.294-1.57-4.457-1.867c2.03-0.385,3.53-1.23,4.501-2.534c0.97-1.304,1.456-3.126,1.456-5.468
		c0-2.964-0.726-5.157-2.178-6.58c-1.453-1.422-3.683-2.134-6.691-2.134H518.857z M501.962,101.065l3.423,14.292h-6.647
		L501.962,101.065z M497.872,94.729l-9.114,32.876h6.802l1.867-7.291h9.358l1.823,7.291h7.246l-8.913-32.876H497.872z
		 M467.998,94.729v32.876h18.294v-5.135h-11.425v-9.513h10.202v-5.068h-10.202v-8.091h11.069v-5.069H467.998z M461.362,125.838
		c1.852-1.578,2.779-3.946,2.779-7.102c0-2.06-0.4-3.686-1.201-4.879c-0.8-1.193-2.089-2.345-3.867-3.457l-6.647-4.245
		c-0.726-0.459-1.255-0.986-1.589-1.578c-0.333-0.593-0.5-1.23-0.5-1.912c0-1.111,0.3-1.997,0.9-2.656s1.412-0.989,2.434-0.989
		c2.208,0,3.312,1.422,3.312,4.267v0.778h6.735v-1.133c0-3.171-0.811-5.42-2.434-6.747c-1.622-1.326-3.982-1.989-7.079-1.989
		c-3.468,0-6.146,0.76-8.036,2.278c-1.889,1.52-2.834,3.672-2.834,6.458c0,2.06,0.385,3.76,1.156,5.101
		c0.77,1.341,2.445,2.812,5.024,4.412l5.445,3.335c0.741,0.459,1.301,0.993,1.679,1.6c0.378,0.608,0.567,1.349,0.567,2.223
		c0,1.156-0.315,2.049-0.945,2.678c-0.63,0.631-1.53,0.945-2.701,0.945c-1.378,0-2.342-0.407-2.89-1.222
		c-0.548-0.815-0.822-2.045-0.822-3.69v-0.867h-6.98v2.045c0,2.89,0.845,5.064,2.534,6.524c1.69,1.46,4.172,2.189,7.447,2.189
		C456.672,128.205,459.51,127.416,461.362,125.838 M421.43,94.729v32.876h18.294v-5.135h-11.426v-9.513h10.203v-5.068h-10.203
		v-8.091h11.07v-5.069H421.43z M403.611,99.798h1.467c2.089,0,3.452,0.333,4.09,1c0.637,0.667,0.955,1.815,0.955,3.445
		c0,1.645-0.322,2.838-0.966,3.579c-0.645,0.741-1.96,1.111-3.946,1.111h-1.6V99.798z M396.698,94.729v32.876h6.913v-13.604h1.333
		c2.06,0,3.46,0.353,4.201,1.056c0.741,0.704,1.112,2.005,1.112,3.901v5.046c0,0.889,0.052,1.545,0.155,1.967
		c0.104,0.423,0.297,0.967,0.578,1.634h6.736c-0.149-0.444-0.256-1.03-0.323-1.756c-0.066-0.726-0.122-1.489-0.166-2.289
		l-0.334-5.646c-0.133-2.119-0.604-3.653-1.411-4.602c-0.808-0.948-2.294-1.57-4.457-1.867c2.03-0.385,3.53-1.23,4.501-2.534
		c0.97-1.304,1.456-3.126,1.456-5.468c0-2.964-0.726-5.157-2.178-6.58c-1.453-1.422-3.683-2.134-6.691-2.134H396.698z
		 M359.935,94.729l8.558,20.806v12.07h6.98v-12.07l9.136-20.806h-7.002l-5.246,13.893l-4.913-13.893H359.935z M335.9,94.729v5.335
		h7.558v27.541h6.979v-27.541h7.647v-5.335H335.9z M315.352,94.729v32.876h18.294v-5.135H322.22v-9.513h10.203v-5.068H322.22v-8.091
		h11.07v-5.069H315.352z M295.172,94.729v32.876h6.913v-14.337h9.692v-5.046h-9.692v-8.424h10.159v-5.069H295.172z M278.276,101.065
		l3.424,14.292h-6.647L278.276,101.065z M274.186,94.729l-9.113,32.876h6.802l1.867-7.291h9.358l1.823,7.291h7.246l-8.913-32.876
		H274.186z M260.539,125.838c1.852-1.578,2.779-3.946,2.779-7.102c0-2.06-0.401-3.686-1.201-4.879s-2.089-2.345-3.867-3.457
		l-6.647-4.245c-0.726-0.459-1.256-0.986-1.589-1.578c-0.334-0.593-0.5-1.23-0.5-1.912c0-1.111,0.3-1.997,0.9-2.656
		s1.412-0.989,2.434-0.989c2.208,0,3.312,1.422,3.312,4.267v0.778h6.735v-1.133c0-3.171-0.811-5.42-2.434-6.747
		c-1.622-1.326-3.982-1.989-7.08-1.989c-3.467,0-6.146,0.76-8.035,2.278c-1.889,1.52-2.834,3.672-2.834,6.458
		c0,2.06,0.385,3.76,1.156,5.101c0.77,1.341,2.445,2.812,5.023,4.412l5.446,3.335c0.741,0.459,1.301,0.993,1.679,1.6
		c0.377,0.608,0.566,1.349,0.566,2.223c0,1.156-0.315,2.049-0.944,2.678c-0.63,0.631-1.531,0.945-2.701,0.945
		c-1.378,0-2.342-0.407-2.89-1.222s-0.822-2.045-0.822-3.69v-0.867h-6.98v2.045c0,2.89,0.845,5.064,2.534,6.524
		c1.689,1.46,4.171,2.189,7.447,2.189C255.849,128.205,258.686,127.416,260.539,125.838"/>
	<path style="clip-path:url(#SVGID_00000107549019342359281740000001709293244663730066_);fill:#FFFFFF;" d="M587.042,51.43v5.335
		h7.558v27.541h6.98V56.765h7.646V51.43H587.042z M559.532,51.43v32.876h6.38V60.277l9.002,24.029h9.025V51.43h-6.38v22.762
		l-8.78-22.762H559.532z M537.542,51.43v32.876h18.294v-5.135H544.41v-9.514h10.203v-5.068H544.41v-8.091h11.07V51.43H537.542z
		 M525.8,84.306h6.869V51.43H525.8V84.306z M500.556,51.43v5.335h7.557v27.541h6.98V56.765h7.647V51.43H500.556z M488.654,57.765
		l3.423,14.293h-6.646L488.654,57.765z M484.564,51.43l-9.114,32.876h6.802l1.867-7.291h9.358l1.823,7.291h7.246l-8.913-32.876
		H484.564z M461.837,65.878v-9.38h2.245c2,0,3.334,0.382,4.001,1.145c0.667,0.763,1,1.945,1,3.545c0,1.645-0.378,2.838-1.134,3.579
		c-0.755,0.741-1.867,1.111-3.334,1.111H461.837z M454.924,51.43v32.876h6.913V70.924h4.69c3.289,0,5.697-0.781,7.224-2.345
		c1.526-1.563,2.289-3.982,2.289-7.257c0-3.483-0.759-6.002-2.278-7.558c-1.519-1.556-3.946-2.334-7.28-2.334H454.924z
		 M430.209,77.704c-0.8,0.86-1.589,1.486-2.367,1.878c-0.778,0.393-1.679,0.589-2.701,0.589c-1.453,0-2.634-0.474-3.545-1.422
		c-0.912-0.948-1.367-2.193-1.367-3.735c0-0.978,0.255-1.911,0.766-2.8c0.512-0.89,1.345-1.793,2.501-2.712L430.209,77.704z
		 M422.985,59.777c-0.386-0.734-0.578-1.419-0.578-2.056c0-0.786,0.263-1.452,0.789-2.001c0.526-0.548,1.189-0.822,1.989-0.822
		c0.89,0,1.597,0.252,2.123,0.755c0.526,0.504,0.789,1.179,0.789,2.023c0,0.889-0.255,1.69-0.767,2.401
		c-0.511,0.711-1.344,1.445-2.5,2.201C423.985,61.344,423.37,60.51,422.985,59.777 M432.832,61.889
		c0.83-1.267,1.245-2.627,1.245-4.079c0-2.179-0.778-3.883-2.334-5.113c-1.556-1.23-3.727-1.845-6.513-1.845
		c-2.638,0-4.761,0.664-6.369,1.99c-1.608,1.326-2.411,3.115-2.411,5.368c0,1.126,0.263,2.267,0.789,3.423
		c0.526,1.156,1.374,2.43,2.545,3.823c-2.238,1.527-3.846,3.012-4.824,4.457s-1.467,3.16-1.467,5.146
		c0,3.142,1.008,5.568,3.023,7.28c2.016,1.711,4.861,2.567,8.536,2.567c1.971,0,3.66-0.233,5.068-0.7
		c1.408-0.467,2.771-1.315,4.09-2.545l2.001,2.645h6.735l-4.957-6.78c0.815-1.393,1.389-2.871,1.723-4.434
		c0.333-1.564,0.5-3.56,0.5-5.991v-0.822h-5.557c0.029,0.207,0.044,0.415,0.044,0.622c0,1.052-0.07,2.123-0.211,3.212
		c-0.141,1.089-0.33,1.997-0.567,2.723l-5.135-6.735C430.654,64.56,432.002,63.156,432.832,61.889 M378.598,51.43l8.558,20.806
		v12.07h6.98v-12.07l9.136-20.806h-7.002l-5.246,13.893l-4.913-13.893H378.598z M354.563,51.43v5.335h7.557v27.541h6.98V56.765
		h7.647V51.43H354.563z M344.652,84.306h6.869V51.43h-6.869V84.306z M324.51,51.43v32.876h17.161v-5.468h-10.203V51.43H324.51z
		 M307.531,57.765l3.423,14.293h-6.646L307.531,57.765z M303.441,51.43l-9.113,32.876h6.802l1.867-7.291h9.358l1.823,7.291h7.246
		L312.51,51.43H303.441z M270.068,51.43v22.006c0,3.868,0.893,6.746,2.679,8.636c1.786,1.889,4.546,2.834,8.28,2.834
		c3.912,0,6.78-0.93,8.602-2.79c1.823-1.859,2.734-4.738,2.734-8.635V51.43h-6.69v22.184c0,2.119-0.371,3.716-1.112,4.79
		c-0.741,1.075-1.882,1.612-3.423,1.612c-1.437,0-2.497-0.53-3.179-1.59c-0.681-1.059-1.022-2.678-1.022-4.857V51.43H270.068z
		 M249.336,66.545c0-3.141,0.133-5.405,0.4-6.79c0.267-1.386,0.719-2.442,1.356-3.168c0.637-0.726,1.489-1.089,2.556-1.089
		c1.482,0,2.546,0.604,3.19,1.811c0.645,1.208,0.989,2.746,1.034,4.613l0.066,3.801l-0.066,5.49c-0.03,2.623-0.36,4.672-0.989,6.146
		c-0.63,1.475-1.738,2.212-3.324,2.212c-1.541,0-2.63-0.748-3.267-2.245c-0.637-1.497-0.956-4.208-0.956-8.135V66.545z
		 M263.64,77.026c0.526-1.311,0.859-2.671,1-4.079c0.141-1.408,0.211-3.415,0.211-6.024c0-3.882-0.189-6.687-0.566-8.413
		c-0.378-1.726-0.938-3.149-1.679-4.268c-0.741-1.119-1.826-2.012-3.256-2.679c-1.43-0.666-3.279-1-5.546-1
		c-2.282,0-4.149,0.326-5.602,0.978c-1.452,0.652-2.571,1.538-3.356,2.657c-0.786,1.119-1.371,2.567-1.756,4.345
		c-0.386,1.778-0.578,4.572-0.578,8.38c0,2.253,0.048,4.368,0.144,6.346c0.097,1.979,0.397,3.701,0.901,5.168
		c0.503,1.468,1.204,2.635,2.1,3.501c0.897,0.867,2.068,1.516,3.512,1.945c1.445,0.43,3.123,0.645,5.035,0.645
		c0.785,0,1.393-0.011,1.823-0.033c0.429-0.023,0.911-0.056,1.445-0.1l1-0.089h9.025v-4.735c-1.542,0-2.609,0.022-3.201,0.067
		c-0.593,0.044-1.638,0.296-3.134,0.756C262.288,79.46,263.114,78.337,263.64,77.026"/>
	<path style="clip-path:url(#SVGID_00000107549019342359281740000001709293244663730066_);fill:#FFFFFF;" d="M514.901,19.201
		c0.575,0.111,1.018,0.313,1.331,0.605c0.312,0.292,0.529,0.695,0.65,1.209s0.181,1.175,0.181,1.981v0.514
		c0,0.806-0.06,1.466-0.181,1.98s-0.338,0.912-0.65,1.195c-0.313,0.282-0.756,0.479-1.331,0.589
		c-0.574,0.111-1.315,0.166-2.222,0.166h-4.656v-8.405h4.656C513.586,19.035,514.328,19.09,514.901,19.201 M505.529,38.447
		c0.151,0.06,0.333,0.115,0.544,0.166c0.212,0.05,0.428,0.086,0.65,0.106c0.222,0.02,0.413,0.03,0.575,0.03
		c0.221,0,0.398-0.075,0.529-0.227c0.131-0.151,0.197-0.337,0.197-0.559v-8.104h4.535l4.596,8.074
		c0.08,0.161,0.212,0.297,0.393,0.408c0.182,0.11,0.378,0.196,0.59,0.257c0.212,0.06,0.428,0.101,0.65,0.121
		c0.222,0.02,0.413,0.03,0.574,0.03c0.141,0,0.318-0.03,0.53-0.091c0.211-0.06,0.317-0.191,0.317-0.393
		c0-0.201-0.091-0.443-0.272-0.725l-4.475-7.953c0.846-0.121,1.547-0.332,2.101-0.635c0.555-0.302,1.003-0.695,1.346-1.179
		c0.342-0.484,0.584-1.078,0.726-1.784c0.14-0.705,0.211-1.532,0.211-2.479v-0.514c0-1.21-0.121-2.223-0.363-3.039
		c-0.242-0.817-0.645-1.471-1.209-1.966c-0.565-0.493-1.315-0.846-2.253-1.058c-0.937-0.212-2.091-0.317-3.462-0.317h-6.501
		c-0.222,0-0.403,0.075-0.544,0.226c-0.141,0.152-0.212,0.338-0.212,0.56v20.803C505.302,38.306,505.378,38.386,505.529,38.447
		 M486.903,21.756c0.192-0.746,0.514-1.346,0.968-1.799c0.453-0.454,1.048-0.776,1.784-0.968c0.735-0.191,1.648-0.287,2.736-0.287
		h0.242c1.089,0,1.996,0.096,2.722,0.287c0.725,0.192,1.315,0.514,1.768,0.968c0.454,0.453,0.776,1.053,0.968,1.799
		c0.191,0.746,0.287,1.673,0.287,2.782v5.956c0,1.109-0.096,2.037-0.287,2.782c-0.192,0.746-0.514,1.346-0.968,1.799
		c-0.453,0.454-1.043,0.777-1.768,0.968c-0.726,0.192-1.633,0.287-2.722,0.287h-0.242c-1.088,0-2.001-0.095-2.736-0.287
		c-0.736-0.191-1.331-0.514-1.784-0.968c-0.454-0.453-0.776-1.053-0.968-1.799c-0.192-0.745-0.287-1.673-0.287-2.782v-5.956
		C486.616,23.429,486.711,22.502,486.903,21.756 M496.383,38.341c1.068-0.272,1.955-0.726,2.66-1.361
		c0.706-0.635,1.235-1.471,1.588-2.509c0.352-1.038,0.529-2.323,0.529-3.856v-6.198c0-1.532-0.177-2.817-0.529-3.855
		c-0.353-1.038-0.882-1.875-1.588-2.51c-0.705-0.635-1.592-1.089-2.66-1.361c-1.069-0.272-2.319-0.408-3.75-0.408h-0.242
		c-1.451,0-2.711,0.136-3.779,0.408c-1.069,0.272-1.956,0.726-2.661,1.361c-0.706,0.635-1.235,1.472-1.588,2.51
		c-0.353,1.038-0.529,2.323-0.529,3.855v6.198c0,1.533,0.176,2.818,0.529,3.856c0.353,1.038,0.882,1.874,1.588,2.509
		c0.705,0.635,1.592,1.089,2.661,1.361c1.068,0.272,2.328,0.408,3.779,0.408h0.242C494.064,38.749,495.314,38.613,496.383,38.341
		 M479.471,28.529c0.081,0,0.151-0.06,0.212-0.181c0.06-0.121,0.11-0.273,0.151-0.454c0.04-0.181,0.071-0.368,0.091-0.559
		c0.02-0.192,0.03-0.368,0.03-0.53c0-0.221-0.071-0.393-0.212-0.514c-0.141-0.121-0.302-0.181-0.483-0.181h-8.346v-7.045h9.918
		c0.08,0,0.151-0.061,0.212-0.182c0.06-0.121,0.11-0.272,0.151-0.453c0.04-0.182,0.07-0.373,0.09-0.575
		c0.02-0.201,0.031-0.382,0.031-0.544c0-0.222-0.071-0.388-0.212-0.499c-0.141-0.11-0.302-0.166-0.484-0.166H469.19
		c-0.666,0-0.998,0.211-0.998,0.635v20.924c0,0.081,0.07,0.156,0.212,0.227c0.14,0.07,0.317,0.125,0.529,0.166
		c0.211,0.04,0.433,0.076,0.665,0.106c0.231,0.03,0.428,0.045,0.589,0.045c0.222,0,0.398-0.086,0.53-0.257
		c0.131-0.171,0.196-0.367,0.196-0.59v-9.373H479.471z M444.427,38.235c0.282,0.101,0.554,0.151,0.816,0.151h11.4
		c0.08,0,0.151-0.06,0.212-0.181c0.06-0.121,0.11-0.272,0.151-0.454c0.04-0.181,0.07-0.372,0.09-0.574
		c0.02-0.201,0.031-0.383,0.031-0.544c0-0.202-0.071-0.363-0.212-0.484c-0.141-0.121-0.302-0.182-0.484-0.182h-9.706v-7.438h8.981
		c0.08,0,0.151-0.06,0.211-0.181c0.061-0.121,0.116-0.273,0.166-0.454c0.051-0.181,0.086-0.373,0.106-0.575
		c0.02-0.201,0.031-0.372,0.031-0.514c0-0.221-0.071-0.393-0.212-0.514c-0.141-0.121-0.313-0.181-0.514-0.181h-8.769v-7.045h9.918
		c0.08,0,0.151-0.061,0.212-0.182c0.06-0.121,0.11-0.272,0.151-0.453c0.04-0.182,0.07-0.373,0.09-0.575
		c0.02-0.201,0.031-0.382,0.031-0.544c0-0.222-0.071-0.388-0.212-0.499c-0.141-0.11-0.302-0.166-0.484-0.166h-11.702
		c-0.483,0-0.725,0.262-0.725,0.786v20.41C444.004,38.004,444.145,38.134,444.427,38.235 M434.953,19.201
		c0.575,0.111,1.018,0.313,1.331,0.605c0.312,0.292,0.529,0.695,0.65,1.209s0.181,1.175,0.181,1.981v0.514
		c0,0.806-0.06,1.466-0.181,1.98s-0.338,0.912-0.65,1.195c-0.313,0.282-0.756,0.479-1.331,0.589
		c-0.574,0.111-1.315,0.166-2.222,0.166h-4.657v-8.405h4.657C433.638,19.035,434.38,19.09,434.953,19.201 M425.581,38.447
		c0.151,0.06,0.332,0.115,0.544,0.166c0.212,0.05,0.428,0.086,0.65,0.106c0.222,0.02,0.413,0.03,0.575,0.03
		c0.221,0,0.397-0.075,0.529-0.227c0.131-0.151,0.196-0.337,0.196-0.559v-8.104h4.536l4.596,8.074
		c0.08,0.161,0.212,0.297,0.393,0.408c0.181,0.11,0.378,0.196,0.59,0.257c0.211,0.06,0.428,0.101,0.65,0.121
		c0.221,0.02,0.413,0.03,0.574,0.03c0.141,0,0.318-0.03,0.529-0.091c0.212-0.06,0.318-0.191,0.318-0.393
		c0-0.201-0.091-0.443-0.272-0.725l-4.475-7.953c0.846-0.121,1.546-0.332,2.101-0.635c0.554-0.302,1.003-0.695,1.346-1.179
		c0.342-0.484,0.584-1.078,0.725-1.784c0.141-0.705,0.212-1.532,0.212-2.479v-0.514c0-1.21-0.121-2.223-0.363-3.039
		c-0.242-0.817-0.645-1.471-1.209-1.966c-0.565-0.493-1.316-0.846-2.253-1.058s-2.092-0.317-3.462-0.317h-6.501
		c-0.222,0-0.404,0.075-0.544,0.226c-0.142,0.152-0.212,0.338-0.212,0.56v20.803C425.354,38.306,425.43,38.386,425.581,38.447
		 M421.596,19.065c0.08,0,0.151-0.061,0.212-0.182c0.06-0.121,0.115-0.272,0.166-0.453c0.05-0.182,0.085-0.373,0.106-0.575
		c0.02-0.201,0.03-0.382,0.03-0.544c0-0.201-0.076-0.363-0.227-0.484s-0.328-0.181-0.529-0.181h-14.665
		c-0.101,0-0.181,0.065-0.242,0.196c-0.06,0.132-0.111,0.288-0.151,0.469c-0.041,0.181-0.071,0.373-0.091,0.575
		c-0.02,0.201-0.03,0.373-0.03,0.514c0,0.201,0.07,0.362,0.212,0.483c0.14,0.121,0.322,0.182,0.544,0.182h5.836v19.17
		c0,0.101,0.07,0.181,0.211,0.242c0.141,0.06,0.318,0.111,0.529,0.151c0.212,0.04,0.434,0.071,0.666,0.091
		c0.231,0.02,0.428,0.03,0.589,0.03c0.222,0,0.398-0.081,0.529-0.242c0.131-0.161,0.197-0.352,0.197-0.574V19.065H421.596z
		 M389.4,16.797c-0.102-0.141-0.212-0.262-0.333-0.363c-0.121-0.1-0.262-0.151-0.423-0.151c-0.182,0-0.378,0.01-0.59,0.03
		c-0.212,0.021-0.419,0.056-0.62,0.106c-0.202,0.051-0.368,0.111-0.499,0.181c-0.131,0.071-0.196,0.147-0.196,0.227v21.408
		c0,0.101,0.07,0.181,0.211,0.242c0.141,0.06,0.313,0.111,0.514,0.151c0.202,0.04,0.413,0.071,0.635,0.091
		c0.222,0.02,0.413,0.03,0.575,0.03c0.221,0,0.398-0.081,0.529-0.242c0.131-0.161,0.197-0.352,0.197-0.574v-16.54l10.855,16.872
		c0.06,0.081,0.166,0.151,0.317,0.212c0.151,0.06,0.328,0.111,0.529,0.151c0.202,0.04,0.403,0.071,0.605,0.091
		c0.201,0.02,0.373,0.03,0.514,0.03c0.201,0,0.368-0.075,0.499-0.227c0.131-0.151,0.197-0.337,0.197-0.559V17.13
		c0-0.242-0.046-0.444-0.136-0.605c-0.091-0.161-0.248-0.242-0.469-0.242c-0.182,0-0.393,0.01-0.635,0.03
		c-0.242,0.021-0.469,0.051-0.68,0.091c-0.212,0.041-0.389,0.091-0.53,0.151c-0.141,0.061-0.211,0.131-0.211,0.212V33.7
		L389.4,16.797z M370.135,38.235c0.282,0.101,0.554,0.151,0.816,0.151h11.399c0.081,0,0.152-0.06,0.212-0.181
		c0.061-0.121,0.111-0.272,0.151-0.454c0.04-0.181,0.071-0.372,0.091-0.574c0.02-0.201,0.03-0.383,0.03-0.544
		c0-0.202-0.071-0.363-0.211-0.484c-0.142-0.121-0.303-0.182-0.484-0.182h-9.706v-7.438h8.98c0.08,0,0.151-0.06,0.212-0.181
		c0.06-0.121,0.116-0.273,0.166-0.454s0.086-0.373,0.106-0.575c0.02-0.201,0.03-0.372,0.03-0.514c0-0.221-0.071-0.393-0.212-0.514
		c-0.141-0.121-0.312-0.181-0.514-0.181h-8.768v-7.045h9.917c0.081,0,0.152-0.061,0.212-0.182c0.061-0.121,0.111-0.272,0.151-0.453
		c0.04-0.182,0.071-0.373,0.091-0.575c0.02-0.201,0.03-0.382,0.03-0.544c0-0.222-0.071-0.388-0.211-0.499
		c-0.142-0.11-0.303-0.166-0.484-0.166h-11.702c-0.484,0-0.726,0.262-0.726,0.786v20.41
		C369.711,38.004,369.853,38.134,370.135,38.235 M355.568,21.877c0.181-0.786,0.488-1.421,0.922-1.905
		c0.433-0.484,1.018-0.836,1.754-1.058c0.735-0.222,1.658-0.333,2.767-0.333h0.241c0.464,0,0.917,0.02,1.361,0.06
		c0.443,0.041,0.851,0.086,1.225,0.137c0.372,0.05,0.7,0.095,0.982,0.136c0.282,0.04,0.494,0.07,0.635,0.09
		c0.182,0.021,0.313-0.161,0.393-0.544c0.081-0.383,0.121-0.796,0.121-1.24c0-0.14-0.176-0.272-0.529-0.393
		c-0.353-0.121-0.786-0.221-1.3-0.302c-0.514-0.08-1.053-0.141-1.618-0.182c-0.564-0.04-1.068-0.06-1.511-0.06h-0.242
		c-1.391,0-2.606,0.136-3.644,0.408c-1.038,0.272-1.895,0.726-2.57,1.361c-0.676,0.635-1.184,1.472-1.527,2.51
		c-0.343,1.038-0.514,2.323-0.514,3.855v6.198c0,1.533,0.166,2.818,0.499,3.856c0.332,1.038,0.836,1.874,1.512,2.509
		c0.675,0.635,1.521,1.089,2.54,1.361c1.017,0.272,2.212,0.408,3.583,0.408h0.242c0.503,0,1.047-0.02,1.632-0.06
		c0.585-0.041,1.129-0.101,1.633-0.182s0.927-0.176,1.27-0.287c0.343-0.111,0.514-0.247,0.514-0.408c0-0.182-0.01-0.378-0.03-0.59
		c-0.02-0.212-0.056-0.413-0.106-0.605c-0.05-0.191-0.116-0.347-0.196-0.468c-0.081-0.121-0.182-0.171-0.303-0.151
		c-0.262,0.04-0.771,0.126-1.527,0.257c-0.756,0.131-1.638,0.196-2.646,0.196h-0.241c-1.089,0-1.991-0.11-2.707-0.333
		c-0.715-0.221-1.29-0.574-1.723-1.058c-0.434-0.484-0.736-1.119-0.907-1.905c-0.172-0.786-0.257-1.754-0.257-2.903V24.78
		C355.296,23.631,355.385,22.663,355.568,21.877 M327.66,16.797c-0.101-0.141-0.212-0.262-0.333-0.363
		c-0.121-0.1-0.262-0.151-0.423-0.151c-0.182,0-0.378,0.01-0.59,0.03c-0.212,0.021-0.419,0.056-0.62,0.106
		c-0.202,0.051-0.368,0.111-0.499,0.181c-0.131,0.071-0.196,0.147-0.196,0.227v21.408c0,0.101,0.07,0.181,0.211,0.242
		c0.141,0.06,0.313,0.111,0.514,0.151c0.202,0.04,0.413,0.071,0.635,0.091c0.222,0.02,0.413,0.03,0.575,0.03
		c0.222,0,0.398-0.081,0.529-0.242c0.131-0.161,0.197-0.352,0.197-0.574v-16.54l10.855,16.872c0.06,0.081,0.166,0.151,0.317,0.212
		c0.151,0.06,0.328,0.111,0.529,0.151c0.202,0.04,0.403,0.071,0.605,0.091c0.201,0.02,0.373,0.03,0.514,0.03
		c0.201,0,0.368-0.075,0.499-0.227c0.131-0.151,0.197-0.337,0.197-0.559V17.13c0-0.242-0.046-0.444-0.136-0.605
		c-0.091-0.161-0.248-0.242-0.469-0.242c-0.182,0-0.393,0.01-0.635,0.03c-0.242,0.021-0.469,0.051-0.68,0.091
		c-0.212,0.041-0.389,0.091-0.53,0.151c-0.141,0.061-0.211,0.131-0.211,0.212V33.7L327.66,16.797z M320.509,17.099
		c0-0.221-0.066-0.413-0.197-0.574c-0.131-0.161-0.307-0.242-0.529-0.242c-0.181,0-0.383,0.01-0.605,0.03
		c-0.222,0.021-0.438,0.056-0.65,0.106c-0.211,0.051-0.388,0.111-0.529,0.181c-0.141,0.071-0.211,0.147-0.211,0.227v21.408
		c0,0.101,0.07,0.181,0.211,0.242c0.141,0.06,0.318,0.111,0.529,0.151c0.212,0.04,0.428,0.071,0.65,0.091
		c0.222,0.02,0.424,0.03,0.605,0.03c0.222,0,0.398-0.081,0.529-0.242c0.131-0.161,0.197-0.352,0.197-0.574V17.099z M301.35,27.35
		l10.069,10.855c0.221,0.242,0.534,0.393,0.937,0.453c0.403,0.061,0.836,0.091,1.3,0.091c0.141,0,0.303-0.02,0.484-0.06
		c0.182-0.041,0.272-0.162,0.272-0.363c0-0.222-0.161-0.504-0.484-0.847l-9.706-10.432l8.86-9.494
		c0.342-0.363,0.514-0.645,0.514-0.847c0-0.201-0.091-0.322-0.272-0.363c-0.182-0.04-0.353-0.06-0.514-0.06
		c-0.444,0-0.873,0.03-1.285,0.091c-0.414,0.06-0.731,0.211-0.953,0.453l-9.222,9.948v-9.676c0-0.221-0.066-0.413-0.197-0.574
		c-0.131-0.161-0.307-0.242-0.529-0.242c-0.181,0-0.383,0.01-0.605,0.03c-0.222,0.021-0.438,0.056-0.65,0.106
		c-0.211,0.051-0.388,0.111-0.529,0.181c-0.141,0.071-0.212,0.147-0.212,0.227v21.408c0,0.101,0.071,0.181,0.212,0.242
		c0.141,0.06,0.318,0.111,0.529,0.151c0.212,0.04,0.428,0.071,0.65,0.091c0.222,0.02,0.424,0.03,0.605,0.03
		c0.222,0,0.398-0.081,0.529-0.242c0.131-0.161,0.197-0.352,0.197-0.574V27.35z M286.41,20.304c0.02-0.201,0.05-0.382,0.091-0.544
		c0,0.101,0.025,0.283,0.075,0.544c0.05,0.263,0.096,0.444,0.136,0.545l2.903,8.799h-6.259l2.933-8.799
		C286.35,20.688,286.391,20.506,286.41,20.304 M293.033,38.643c0.342,0.071,0.796,0.106,1.36,0.106c0.182,0,0.358-0.035,0.53-0.106
		c0.171-0.071,0.257-0.196,0.257-0.378c0-0.121-0.011-0.211-0.031-0.272l-7.257-21.136c-0.12-0.382-0.352-0.574-0.695-0.574
		c-0.383,0-0.801,0.035-1.255,0.106c-0.453,0.071-0.721,0.217-0.801,0.438l-7.287,21.166c-0.041,0.121-0.061,0.212-0.061,0.272
		c0,0.182,0.086,0.307,0.257,0.378c0.171,0.071,0.358,0.106,0.56,0.106c0.463,0,0.881-0.02,1.255-0.06
		c0.372-0.041,0.599-0.182,0.68-0.424l2.116-6.259h7.681l2.026,6.138C292.467,38.406,292.69,38.572,293.033,38.643 M262.031,38.235
		c0.282,0.101,0.554,0.151,0.816,0.151h11.4c0.08,0,0.151-0.06,0.211-0.181c0.061-0.121,0.111-0.272,0.151-0.454
		c0.041-0.181,0.071-0.372,0.091-0.574c0.02-0.201,0.03-0.383,0.03-0.544c0-0.202-0.07-0.363-0.211-0.484
		c-0.142-0.121-0.303-0.182-0.484-0.182h-9.706v-7.438h8.98c0.081,0,0.151-0.06,0.212-0.181c0.06-0.121,0.116-0.273,0.166-0.454
		c0.05-0.181,0.086-0.373,0.106-0.575c0.02-0.201,0.03-0.372,0.03-0.514c0-0.221-0.071-0.393-0.211-0.514
		c-0.142-0.121-0.313-0.181-0.514-0.181h-8.769v-7.045h9.918c0.08,0,0.151-0.061,0.211-0.182c0.061-0.121,0.111-0.272,0.151-0.453
		c0.041-0.182,0.071-0.373,0.091-0.575c0.02-0.201,0.03-0.382,0.03-0.544c0-0.222-0.07-0.388-0.211-0.499
		c-0.142-0.11-0.303-0.166-0.484-0.166h-11.702c-0.484,0-0.725,0.262-0.725,0.786v20.41
		C261.608,38.004,261.747,38.134,262.031,38.235 M251.672,19.352c0.726,0.212,1.315,0.559,1.769,1.043
		c0.453,0.484,0.776,1.114,0.967,1.89c0.192,0.776,0.288,1.719,0.288,2.827v4.778c0,1.108-0.096,2.051-0.288,2.827
		c-0.191,0.776-0.514,1.406-0.967,1.89c-0.454,0.483-1.043,0.831-1.769,1.043c-0.726,0.211-1.633,0.317-2.721,0.317h-4.143V19.035
		h4.143C250.038,19.035,250.946,19.14,251.672,19.352 M242.359,16.797c-0.181,0.121-0.272,0.323-0.272,0.605v20.44
		c0,0.162,0.136,0.292,0.408,0.393c0.272,0.101,0.549,0.151,0.832,0.151h5.624c1.451,0,2.711-0.136,3.779-0.408
		c1.069-0.272,1.955-0.726,2.661-1.361s1.23-1.471,1.572-2.509c0.343-1.038,0.515-2.323,0.515-3.856V24.78
		c0-1.532-0.172-2.817-0.515-3.856c-0.342-1.038-0.866-1.874-1.572-2.509c-0.706-0.635-1.592-1.094-2.661-1.376
		c-1.068-0.282-2.328-0.423-3.779-0.423h-5.987C242.742,16.616,242.54,16.676,242.359,16.797"/>
</g>
</svg>
