<?xml version="1.0" encoding="iso-8859-1"?>
<!-- Generator: Adobe Illustrator 29.5.1, SVG Export Plug-In . SVG Version: 9.03 Build 0)  -->
<svg version="1.1" id="Layer_1" xmlns="http://www.w3.org/2000/svg" xmlns:xlink="http://www.w3.org/1999/xlink" x="0px" y="0px"
	 viewBox="0 0 1000 144" style="enable-background:new 0 0 1000 144;" xml:space="preserve">
<g>
	<defs>
		<rect id="SVGID_1_" width="1000" height="144"/>
	</defs>
	<clipPath id="SVGID_00000041269028512121060030000005510149939788492704_">
		<use xlink:href="#SVGID_1_"  style="overflow:visible;"/>
	</clipPath>
	<path style="clip-path:url(#SVGID_00000041269028512121060030000005510149939788492704_);fill:#FFFFFF;" d="M414.759,115.025
		v11.825c0,0.397-0.133,0.706-0.443,0.927c-0.265,0.221-0.619,0.353-1.062,0.353c-0.265,0-0.664,0-1.106-0.044
		c-0.442-0.044-0.929-0.088-1.372-0.132c-0.442-0.045-0.841-0.177-1.195-0.309c-0.309-0.133-0.486-0.309-0.486-0.486v-12.09
		L398.74,94.903c-0.354-0.706-0.399-1.192-0.133-1.5c0.266-0.309,0.752-0.486,1.46-0.486c0.443,0,0.885,0,1.372,0.044
		c0.443,0,0.885,0.044,1.283,0.133c0.399,0.044,0.753,0.132,1.018,0.22c0.266,0.089,0.487,0.221,0.575,0.441l7.612,15.489
		l7.611-15.444c0.089-0.177,0.265-0.354,0.575-0.442c0.266-0.088,0.62-0.176,1.018-0.264c0.398-0.045,0.841-0.089,1.283-0.133
		c0.443,0,0.93-0.044,1.372-0.044c0.708,0,1.195,0.132,1.461,0.441c0.221,0.309,0.177,0.795-0.178,1.545L414.759,115.025z
		 M384.491,98.521v28.329c0,0.397-0.133,0.706-0.443,0.927c-0.31,0.221-0.619,0.353-1.018,0.353c-0.265,0-0.663,0-1.15-0.044
		c-0.487-0.044-0.974-0.088-1.416-0.132c-0.443-0.045-0.841-0.177-1.151-0.309c-0.354-0.133-0.486-0.309-0.486-0.486V98.565h-8.762
		c-0.354,0-0.62-0.132-0.885-0.397c-0.222-0.265-0.354-0.573-0.354-0.971c0-0.265,0-0.573,0.044-1.015
		c0.044-0.397,0.088-0.838,0.133-1.235c0.044-0.397,0.177-0.75,0.265-1.059c0.133-0.265,0.266-0.441,0.487-0.441h23.453
		c0.354,0,0.62,0.132,0.885,0.397c0.222,0.265,0.354,0.617,0.354,0.971c0,0.264,0,0.573-0.044,1.014
		c-0.044,0.442-0.088,0.839-0.133,1.236c-0.044,0.397-0.132,0.75-0.265,1.015s-0.266,0.441-0.487,0.441H384.491z M364.046,126.85
		c0,0.397-0.132,0.706-0.442,0.927c-0.266,0.221-0.62,0.353-1.062,0.353c-0.266,0-0.664,0-1.151-0.044
		c-0.486-0.044-0.929-0.088-1.416-0.132c-0.442-0.045-0.84-0.177-1.195-0.309c-0.309-0.133-0.486-0.309-0.486-0.486V93.932
		c0-0.177,0.177-0.353,0.486-0.486c0.355-0.132,0.753-0.264,1.195-0.308c0.443-0.044,0.93-0.133,1.416-0.133
		c0.487-0.044,0.841-0.044,1.151-0.044c0.398,0,0.752,0.133,1.062,0.397c0.265,0.265,0.442,0.574,0.442,0.927V126.85z
		 M332.141,122.305c0.265,0.044,0.62,0.177,1.151,0.265c0.531,0.132,1.106,0.265,1.814,0.397c0.664,0.133,1.416,0.221,2.257,0.353
		c0.796,0.088,1.637,0.133,2.434,0.133c0.885,0,1.725-0.089,2.522-0.221c0.796-0.132,1.549-0.397,2.168-0.706
		c0.62-0.353,1.151-0.794,1.505-1.324c0.398-0.574,0.575-1.235,0.575-2.074c0-1.147-0.354-2.118-1.106-2.912
		c-0.753-0.794-1.682-1.545-2.788-2.251c-1.106-0.706-2.345-1.412-3.673-2.118s-2.522-1.544-3.673-2.471
		c-1.15-0.926-2.08-2.03-2.788-3.309c-0.752-1.28-1.106-2.824-1.106-4.678c0-1.544,0.265-2.868,0.841-3.927
		c0.575-1.059,1.327-1.941,2.301-2.647c0.973-0.662,2.168-1.192,3.496-1.501c1.371-0.309,2.876-0.485,4.513-0.485
		c0.354,0,0.885,0,1.593,0.044s1.461,0.088,2.257,0.176c0.797,0.089,1.593,0.177,2.346,0.309c0.796,0.133,1.416,0.309,1.858,0.53
		c0.443,0.176,0.708,0.397,0.797,0.618c0.088,0.22,0.088,0.573,0.044,1.103c-0.044,0.838-0.221,1.5-0.531,2.074
		c-0.266,0.573-0.664,0.794-1.195,0.706c-0.796-0.177-1.681-0.309-2.699-0.486c-1.018-0.132-2.169-0.22-3.408-0.22
		c-1.947,0-3.584,0.309-4.823,0.838c-1.239,0.574-1.859,1.5-1.859,2.824c0,1.059,0.355,1.942,1.107,2.692
		c0.752,0.75,1.681,1.456,2.788,2.118c1.106,0.662,2.345,1.368,3.672,2.074c1.328,0.706,2.523,1.544,3.673,2.515
		c1.107,0.971,2.08,2.118,2.788,3.442c0.752,1.324,1.106,3.001,1.106,4.898c0,1.809-0.354,3.31-1.017,4.457
		c-0.664,1.191-1.593,2.074-2.7,2.736c-1.106,0.662-2.434,1.103-3.894,1.368c-1.46,0.264-3.009,0.397-4.602,0.397
		c-0.708,0-1.505-0.044-2.301-0.088c-0.797-0.045-1.549-0.133-2.345-0.221c-0.753-0.088-1.461-0.221-2.169-0.353
		c-0.664-0.133-1.239-0.265-1.726-0.441c-0.486-0.177-0.752-0.353-0.84-0.53c-0.089-0.221-0.133-0.574-0.045-1.059
		c0.089-0.927,0.266-1.721,0.531-2.339C331.344,122.482,331.698,122.173,332.141,122.305 M313.953,98.477h-6.593v11.429h6.593
		c1.284,0,2.346-0.089,3.098-0.221c0.797-0.132,1.372-0.397,1.814-0.794c0.443-0.397,0.709-0.883,0.841-1.545
		c0.133-0.661,0.221-1.544,0.221-2.603v-1.059c0-1.059-0.088-1.942-0.221-2.648c-0.132-0.661-0.442-1.191-0.841-1.588
		c-0.442-0.397-1.017-0.618-1.814-0.795C316.255,98.565,315.237,98.477,313.953,98.477 M301.652,127.115V94.638
		c0-0.353,0.132-0.618,0.442-0.883c0.31-0.22,0.62-0.352,1.062-0.352h10.488c2.168,0,4.027,0.176,5.575,0.485
		c1.549,0.309,2.788,0.882,3.762,1.677c0.973,0.794,1.681,1.853,2.124,3.177c0.443,1.324,0.664,2.956,0.664,4.986v1.059
		c0,1.5-0.133,2.78-0.354,3.883c-0.222,1.103-0.62,2.074-1.107,2.869c-0.486,0.794-1.194,1.412-2.035,1.897
		s-1.859,0.838-3.009,1.103l6.593,11.385c0.354,0.617,0.531,1.059,0.531,1.368c0,0.176-0.088,0.353-0.221,0.485
		c-0.177,0.132-0.354,0.221-0.531,0.265c-0.177,0.044-0.398,0.088-0.575,0.132c-0.222,0-0.354,0.044-0.443,0.044
		c-0.265,0-0.664,0-1.106-0.044c-0.443-0.044-0.885-0.088-1.328-0.176c-0.442-0.089-0.885-0.177-1.239-0.353
		c-0.354-0.177-0.619-0.398-0.796-0.662l-6.992-11.914h-5.841v11.914c0,0.397-0.133,0.662-0.443,0.882
		c-0.265,0.221-0.619,0.353-1.018,0.353c-0.265,0-0.663,0-1.15-0.044c-0.487-0.044-0.929-0.088-1.416-0.132
		c-0.443-0.044-0.841-0.177-1.195-0.309C301.829,127.468,301.652,127.336,301.652,127.115 M273.773,126.586V94.638
		c0-0.397,0.133-0.706,0.443-0.927c0.265-0.22,0.619-0.308,1.062-0.308h19.072c0.354,0,0.664,0.132,0.885,0.441
		c0.221,0.265,0.354,0.617,0.354,0.971c0,0.264,0,0.573-0.044,1.014c-0.044,0.442-0.089,0.839-0.133,1.236
		c-0.044,0.397-0.177,0.75-0.265,1.015c-0.133,0.265-0.31,0.441-0.487,0.441h-15.134v9.178h12.966c0.309,0,0.575,0.133,0.84,0.397
		c0.222,0.265,0.354,0.574,0.354,0.927c0,0.265,0,0.574-0.044,1.015c-0.044,0.441-0.088,0.838-0.133,1.236
		c-0.044,0.397-0.177,0.75-0.265,1.059c-0.133,0.264-0.266,0.441-0.487,0.441h-13.275v9.708h14.824c0.354,0,0.664,0.132,0.885,0.397
		c0.221,0.265,0.354,0.574,0.354,0.971c0,0.264,0,0.573-0.044,1.015c-0.045,0.397-0.089,0.838-0.133,1.235
		c-0.044,0.397-0.177,0.75-0.266,1.059c-0.132,0.309-0.309,0.441-0.486,0.441h-18.675c-0.442,0-0.929-0.088-1.416-0.309
		C273.994,127.027,273.773,126.806,273.773,126.586 M256.338,118.466l7.169-24.578c0.442-0.442,0.973-0.706,1.548-0.839
		c0.576-0.088,1.239-0.176,2.036-0.176c0.31,0,0.664,0,0.974,0.044c0.353,0.044,0.619,0.088,0.84,0.221
		c0.222,0.132,0.399,0.265,0.531,0.485c0.133,0.221,0.089,0.486,0,0.883l-11.018,32.874c-0.045,0.265-0.222,0.441-0.487,0.574
		c-0.266,0.132-0.531,0.176-0.841,0.176c-1.062,0-1.947-0.044-2.655-0.176c-0.708-0.133-1.151-0.309-1.328-0.53l-10.974-32.918
		c-0.088-0.309-0.088-0.574,0-0.795c0.089-0.22,0.221-0.353,0.442-0.485c0.178-0.132,0.399-0.221,0.664-0.265
		c0.222-0.044,0.443-0.088,0.576-0.088c0.486,0,0.973,0,1.46,0.044s0.929,0.088,1.372,0.177c0.398,0.088,0.752,0.22,1.062,0.352
		c0.265,0.177,0.487,0.354,0.575,0.618l7.346,24.358c0.133,0.397,0.221,0.794,0.265,1.192c0.045,0.441,0.089,0.794,0.177,1.147
		c0.045-0.353,0.089-0.75,0.133-1.147C256.117,119.216,256.205,118.819,256.338,118.466 M237.929,126.85
		c0,0.397-0.133,0.706-0.442,0.927c-0.266,0.221-0.62,0.353-1.062,0.353c-0.266,0-0.664,0-1.151-0.044
		c-0.487-0.044-0.929-0.088-1.416-0.132c-0.442-0.045-0.841-0.177-1.195-0.309c-0.354-0.133-0.487-0.309-0.487-0.486V93.932
		c0-0.177,0.177-0.353,0.487-0.486c0.354-0.132,0.708-0.264,1.195-0.308c0.442-0.044,0.929-0.133,1.416-0.133
		c0.487-0.044,0.841-0.044,1.151-0.044c0.398,0,0.752,0.133,1.062,0.397c0.265,0.265,0.442,0.574,0.442,0.927V126.85z
		 M220.494,117.584V93.755c0-0.176,0.177-0.352,0.531-0.441c0.354-0.132,0.752-0.22,1.239-0.265c0.487-0.044,0.974-0.088,1.46-0.132
		c0.487-0.044,0.885-0.044,1.151-0.044c0.841,0,1.239,0.485,1.239,1.412v32.565c0,0.397-0.133,0.662-0.442,0.883
		c-0.31,0.221-0.62,0.353-0.974,0.353c-0.266,0-0.575,0-1.018-0.044c-0.442-0.044-0.841-0.044-1.283-0.133
		c-0.443-0.088-0.797-0.176-1.151-0.264c-0.354-0.133-0.575-0.265-0.708-0.442l-15.444-23.696v23.343
		c0,0.397-0.132,0.706-0.442,0.927c-0.266,0.221-0.62,0.353-1.018,0.353c-0.265,0-0.664,0-1.15-0.044
		c-0.487-0.044-0.974-0.088-1.417-0.132c-0.442-0.045-0.84-0.177-1.15-0.309c-0.354-0.133-0.487-0.309-0.487-0.486V93.932
		c0-0.177,0.177-0.353,0.487-0.485c0.354-0.133,0.708-0.265,1.15-0.309c0.443-0.044,0.886-0.089,1.372-0.133
		c0.487-0.044,0.841-0.044,1.151-0.044c0.354,0,0.664,0.088,0.885,0.309c0.221,0.221,0.442,0.441,0.575,0.706L220.494,117.584z
		 M187.571,115.466V94.02c0-0.176,0.177-0.353,0.486-0.485c0.355-0.132,0.753-0.265,1.195-0.353
		c0.487-0.088,0.974-0.177,1.416-0.221c0.487-0.044,0.841-0.088,1.151-0.088c0.398,0,0.752,0.132,1.018,0.441
		c0.265,0.309,0.398,0.618,0.398,0.971v21.446c0,2.338-0.266,4.28-0.797,5.868c-0.531,1.589-1.283,2.824-2.345,3.839
		c-1.062,0.971-2.389,1.677-3.983,2.074c-1.593,0.397-3.495,0.618-5.62,0.618h-0.398c-2.08,0-3.938-0.221-5.487-0.618
		c-1.593-0.397-2.876-1.103-3.938-2.074c-1.062-0.97-1.815-2.25-2.346-3.839c-0.531-1.544-0.796-3.53-0.796-5.868V94.02
		c0-0.176,0.177-0.353,0.486-0.485c0.355-0.132,0.708-0.265,1.195-0.353c0.443-0.088,0.93-0.177,1.416-0.221
		c0.487-0.044,0.885-0.088,1.151-0.088c0.398,0,0.708,0.132,1.018,0.441c0.265,0.309,0.442,0.618,0.442,0.971v21.137
		c0,1.367,0.089,2.515,0.31,3.486c0.221,0.97,0.575,1.765,1.106,2.338c0.531,0.618,1.239,1.059,2.124,1.324s1.992,0.441,3.319,0.441
		h0.398c1.372,0,2.479-0.132,3.408-0.441c0.885-0.309,1.637-0.75,2.168-1.324c0.531-0.618,0.93-1.368,1.151-2.338
		C187.482,117.981,187.571,116.834,187.571,115.466 M393.474,38.244v40.994h-11.329V16.622h15.798l15.179,38.567V16.622h11.505
		v62.616h-14.426L393.474,38.244z M360.949,16.622h12.745v62.615h-12.745V16.622z M312.051,16.622h13.098v27.226l16.329-27.226
		h13.674l-18.143,28.815l18.143,33.845h-15.179l-14.824-30.447v30.447h-13.098V16.622z M290.721,65.338H272.49l-3.319,13.944
		h-13.143l17.701-62.66h16.727l17.435,62.66h-13.762L290.721,65.338z M288.11,54.439l-6.283-25.903l-6.594,25.903H288.11z
		 M217.928,16.622h33.94v10.635h-20.665v13.37h19.028v10.899h-19.028v16.68h20.71v11.032h-33.985V16.622z M189.12,16.622
		c16.771,0,21.948,8.87,21.948,31.33c0,22.461-5.221,31.33-21.993,31.33h-21.506v-62.66H189.12z M180.756,68.471h5.974
		c9.78,0,11.019-5.736,11.019-20.74c0-14.958-1.239-20.695-11.019-20.695h-5.974V68.471z"/>
	<path style="clip-path:url(#SVGID_00000041269028512121060030000005510149939788492704_);fill:#FFFFFF;" d="M71.713,1.288
		C32.549,1.288,0.799,32.947,0.799,72s31.749,70.712,70.913,70.712S142.625,111.053,142.625,72S110.877,1.288,71.713,1.288"/>
	<path style="clip-path:url(#SVGID_00000041269028512121060030000005510149939788492704_);fill:#FFFFFF;" d="M71.713,2.968
		c38.175,0,69.233,30.968,69.233,69.032s-31.058,69.032-69.233,69.032S2.479,110.064,2.479,72S33.538,2.968,71.713,2.968"/>
	<path style="clip-path:url(#SVGID_00000041269028512121060030000005510149939788492704_);" d="M95.076,94.204L68.262,47.816
		l3.533-5.928l30.099,52.316H95.076z M82.396,94.204L61.86,58.843l3.45-5.804l23.655,41.165H82.396z M69.509,94.204L55.416,69.953
		l3.575-6.011l17.336,30.22h-6.818V94.204z M56.539,94.204l-7.567-13.1l3.576-6.011l10.933,19.111H56.539z M41.365,94.204
		l4.614-7.877l4.615,7.877H41.365z M35.503,36.416V85.83c0,19.94,16.213,36.107,36.209,36.107c19.997,0,36.21-16.167,36.21-36.107
		V36.416H35.503z"/>
</g>
<rect x="471.959" y="16.622" style="fill:#FFFFFF;" width="2" height="110.978"/>
<g>
	<defs>
		<rect id="SVGID_00000027599803894208925710000013574929152230550710_" width="1000" height="144"/>
	</defs>
	<clipPath id="SVGID_00000088831528537399352740000013749901101982100409_">
		<use xlink:href="#SVGID_00000027599803894208925710000013574929152230550710_"  style="overflow:visible;"/>
	</clipPath>
	<path style="clip-path:url(#SVGID_00000088831528537399352740000013749901101982100409_);fill:#FFFFFF;" d="M842.995,64.413
		c0-4.075-1.181-7.212-3.542-9.412c-2.362-2.199-5.723-3.299-10.083-3.299c-3.504,0-6.351,0.667-8.541,2
		c-2.19,1.333-3.799,3.409-4.827,6.227c-1.029,2.818-1.543,7.198-1.543,13.139c0,6.399,0.409,11.022,1.228,13.868
		c0.819,2.847,2.443,4.99,4.871,6.427c2.428,1.438,5.831,2.157,10.211,2.157c1.314,0,2.733-0.076,4.256-0.229
		c1.524-0.152,4.18-0.58,7.97-1.285V72.611h-13.568v6.542h4.856v9.312c-0.724,0.266-1.448,0.466-2.171,0.599
		c-0.724,0.134-1.485,0.2-2.285,0.2c-2.305,0-3.918-0.804-4.842-2.413c-0.924-1.609-1.424-3.928-1.5-6.956l-0.085-6.541
		c0-1.409,0.038-3.489,0.114-6.241c0.076-2.752,0.538-4.961,1.385-6.627c0.848-1.666,2.281-2.5,4.299-2.5
		c1.524,0,2.742,0.505,3.657,1.514c0.914,1.01,1.371,2.314,1.371,3.914v2.056h8.769V64.413z M777.651,52.759v42.247h8.198V64.128
		l11.568,30.878h11.597V52.759h-8.198v29.25l-11.282-29.25H777.651z M762.763,95.006h8.826V52.759h-8.826V95.006z M740.14,59.272
		h1.885c2.685,0,4.437,0.428,5.256,1.285c0.818,0.857,1.228,2.333,1.228,4.428c0,2.113-0.414,3.646-1.242,4.598
		c-0.829,0.953-2.519,1.429-5.071,1.429h-2.056V59.272z M731.256,52.759v42.247h8.884V77.524h1.714c2.646,0,4.446,0.453,5.398,1.357
		c0.952,0.905,1.429,2.576,1.429,5.013v6.484c0,1.143,0.066,1.986,0.2,2.528c0.132,0.543,0.38,1.243,0.742,2.1h8.655
		c-0.19-0.571-0.328-1.324-0.414-2.257s-0.157-1.914-0.214-2.942l-0.429-7.255c-0.171-2.723-0.776-4.694-1.813-5.913
		c-1.039-1.219-2.948-2.018-5.728-2.4c2.609-0.494,4.537-1.58,5.785-3.256c1.247-1.675,1.871-4.018,1.871-7.027
		c0-3.808-0.934-6.627-2.8-8.455c-1.866-1.828-4.732-2.742-8.598-2.742H731.256z M703.406,52.759v42.247h23.509v-6.599h-14.682
		V76.182h13.111v-6.513h-13.111V59.272h14.225v-6.513H703.406z M675.449,52.759v42.247h23.509v-6.599h-14.683V76.182h13.111v-6.513
		h-13.111V59.272H698.5v-6.513H675.449z M637.972,52.759v42.247h8.198V64.128l11.568,30.878h11.597V52.759h-8.198v29.25
		l-11.283-29.25H637.972z M623.084,95.006h8.826V52.759h-8.826V95.006z M617.036,64.413c0-4.075-1.181-7.212-3.542-9.412
		c-2.361-2.199-5.722-3.299-10.083-3.299c-3.504,0-6.351,0.667-8.541,2s-3.799,3.409-4.827,6.227
		c-1.028,2.818-1.543,7.198-1.543,13.139c0,6.399,0.41,11.022,1.229,13.868c0.818,2.847,2.442,4.99,4.87,6.427
		c2.428,1.438,5.832,2.157,10.212,2.157c1.314,0,2.732-0.076,4.256-0.229c1.523-0.152,4.18-0.58,7.969-1.285V72.611h-13.568v6.542
		h4.856v9.312c-0.724,0.266-1.447,0.466-2.171,0.599c-0.724,0.134-1.485,0.2-2.285,0.2c-2.304,0-3.918-0.804-4.842-2.413
		c-0.923-1.609-1.423-3.928-1.499-6.956l-0.086-6.541c0-1.409,0.038-3.489,0.114-6.241c0.076-2.752,0.538-4.961,1.386-6.627
		c0.847-1.666,2.28-2.5,4.299-2.5c1.523,0,2.742,0.505,3.656,1.514c0.914,1.01,1.371,2.314,1.371,3.914v2.056h8.769V64.413z
		 M551.692,52.759v42.247h8.198V64.128l11.569,30.878h11.597V52.759h-8.198v29.25l-11.283-29.25H551.692z M523.685,52.759v42.247
		h23.509v-6.599h-14.683V76.182h13.111v-6.513h-13.111V59.272h14.226v-6.513H523.685z"/>
	<path style="clip-path:url(#SVGID_00000088831528537399352740000013749901101982100409_);fill:#FFFFFF;" d="M783.092,28.529
		c0.08,0,0.151-0.06,0.212-0.181c0.06-0.121,0.11-0.273,0.151-0.454c0.04-0.181,0.07-0.368,0.091-0.559
		c0.019-0.192,0.03-0.368,0.03-0.53c0-0.221-0.071-0.393-0.212-0.514c-0.141-0.121-0.302-0.181-0.484-0.181h-8.345v-7.045h9.918
		c0.08,0,0.151-0.061,0.211-0.182c0.061-0.121,0.111-0.272,0.151-0.453c0.041-0.182,0.071-0.373,0.091-0.575
		c0.02-0.201,0.03-0.382,0.03-0.544c0-0.222-0.07-0.388-0.211-0.499c-0.142-0.11-0.303-0.166-0.484-0.166h-11.43
		c-0.665,0-0.997,0.211-0.997,0.635v20.924c0,0.081,0.07,0.156,0.211,0.227c0.141,0.07,0.318,0.125,0.529,0.166
		c0.212,0.04,0.434,0.076,0.666,0.106c0.231,0.03,0.428,0.045,0.589,0.045c0.222,0,0.398-0.086,0.529-0.257s0.197-0.367,0.197-0.59
		v-9.373H783.092z M753.398,21.756c0.192-0.746,0.515-1.346,0.968-1.799c0.454-0.454,1.048-0.776,1.784-0.968
		c0.736-0.191,1.648-0.287,2.737-0.287h0.241c1.089,0,1.996,0.096,2.722,0.287c0.725,0.192,1.315,0.514,1.769,0.968
		c0.453,0.453,0.775,1.053,0.967,1.799c0.192,0.746,0.287,1.673,0.287,2.782v5.956c0,1.109-0.095,2.037-0.287,2.782
		c-0.192,0.746-0.514,1.346-0.967,1.799c-0.454,0.454-1.044,0.777-1.769,0.968c-0.726,0.192-1.633,0.287-2.722,0.287h-0.241
		c-1.089,0-2.001-0.095-2.737-0.287c-0.736-0.191-1.33-0.514-1.784-0.968c-0.453-0.453-0.776-1.053-0.968-1.799
		c-0.191-0.745-0.287-1.673-0.287-2.782v-5.956C753.112,23.429,753.208,22.502,753.398,21.756 M762.879,38.341
		c1.068-0.272,1.955-0.726,2.661-1.361c0.705-0.635,1.234-1.471,1.587-2.509c0.353-1.038,0.529-2.323,0.529-3.856v-6.198
		c0-1.532-0.176-2.817-0.529-3.855c-0.353-1.038-0.882-1.875-1.587-2.51c-0.706-0.635-1.593-1.089-2.661-1.361
		c-1.069-0.272-2.319-0.408-3.75-0.408h-0.241c-1.452,0-2.712,0.136-3.78,0.408c-1.069,0.272-1.956,0.726-2.661,1.361
		c-0.706,0.635-1.235,1.472-1.587,2.51c-0.353,1.038-0.53,2.323-0.53,3.855v6.198c0,1.533,0.177,2.818,0.53,3.856
		c0.352,1.038,0.881,1.874,1.587,2.509c0.705,0.635,1.592,1.089,2.661,1.361c1.068,0.272,2.328,0.408,3.78,0.408h0.241
		C760.56,38.749,761.81,38.613,762.879,38.341 M740.353,38.205c0.06-0.121,0.11-0.272,0.151-0.454
		c0.04-0.181,0.071-0.372,0.091-0.574c0.02-0.201,0.03-0.383,0.03-0.544c0-0.202-0.071-0.363-0.212-0.484
		c-0.141-0.121-0.312-0.182-0.514-0.182h-8.889V17.099c0-0.221-0.065-0.413-0.195-0.574c-0.129-0.161-0.304-0.242-0.523-0.242
		c-0.179,0-0.384,0.01-0.613,0.03c-0.23,0.021-0.449,0.056-0.658,0.106c-0.21,0.051-0.384,0.111-0.523,0.181
		c-0.14,0.071-0.21,0.147-0.21,0.227v21.075c0,0.162,0.13,0.283,0.389,0.363c0.259,0.081,0.558,0.121,0.897,0.121h10.567
		C740.222,38.386,740.292,38.326,740.353,38.205 M709.874,21.756c0.192-0.746,0.514-1.346,0.968-1.799
		c0.453-0.454,1.048-0.776,1.784-0.968c0.736-0.191,1.648-0.287,2.736-0.287h0.242c1.089,0,1.996,0.096,2.722,0.287
		c0.725,0.192,1.315,0.514,1.768,0.968c0.454,0.453,0.776,1.053,0.968,1.799c0.191,0.746,0.287,1.673,0.287,2.782v5.956
		c0,1.109-0.096,2.037-0.287,2.782c-0.192,0.746-0.514,1.346-0.968,1.799c-0.453,0.454-1.043,0.777-1.768,0.968
		c-0.726,0.192-1.633,0.287-2.722,0.287h-0.242c-1.088,0-2-0.095-2.736-0.287c-0.736-0.191-1.331-0.514-1.784-0.968
		c-0.454-0.453-0.776-1.053-0.968-1.799c-0.192-0.745-0.287-1.673-0.287-2.782v-5.956C709.587,23.429,709.682,22.502,709.874,21.756
		 M719.354,38.341c1.068-0.272,1.955-0.726,2.661-1.361c0.705-0.635,1.234-1.471,1.587-2.509c0.352-1.038,0.529-2.323,0.529-3.856
		v-6.198c0-1.532-0.177-2.817-0.529-3.855c-0.353-1.038-0.882-1.875-1.587-2.51c-0.706-0.635-1.593-1.089-2.661-1.361
		c-1.069-0.272-2.319-0.408-3.75-0.408h-0.242c-1.451,0-2.711,0.136-3.779,0.408c-1.069,0.272-1.956,0.726-2.661,1.361
		c-0.706,0.635-1.235,1.472-1.588,2.51c-0.353,1.038-0.529,2.323-0.529,3.855v6.198c0,1.533,0.176,2.818,0.529,3.856
		c0.353,1.038,0.882,1.874,1.588,2.509c0.705,0.635,1.592,1.089,2.661,1.361c1.068,0.272,2.328,0.408,3.779,0.408h0.242
		C717.035,38.749,718.285,38.613,719.354,38.341 M688.733,21.756c0.191-0.746,0.514-1.346,0.967-1.799
		c0.454-0.454,1.048-0.776,1.784-0.968c0.736-0.191,1.648-0.287,2.737-0.287h0.242c1.088,0,1.995,0.096,2.721,0.287
		c0.726,0.192,1.315,0.514,1.769,0.968c0.453,0.453,0.776,1.053,0.968,1.799c0.191,0.746,0.287,1.673,0.287,2.782v5.956
		c0,1.109-0.096,2.037-0.287,2.782c-0.192,0.746-0.515,1.346-0.968,1.799c-0.454,0.454-1.043,0.777-1.769,0.968
		c-0.726,0.192-1.633,0.287-2.721,0.287h-0.242c-1.089,0-2.001-0.095-2.737-0.287c-0.736-0.191-1.33-0.514-1.784-0.968
		c-0.453-0.453-0.776-1.053-0.967-1.799c-0.192-0.745-0.287-1.673-0.287-2.782v-5.956C688.446,23.429,688.541,22.502,688.733,21.756
		 M698.212,38.341c1.068-0.272,1.955-0.726,2.661-1.361c0.705-0.635,1.235-1.471,1.587-2.509c0.353-1.038,0.53-2.323,0.53-3.856
		v-6.198c0-1.532-0.177-2.817-0.53-3.855c-0.352-1.038-0.882-1.875-1.587-2.51c-0.706-0.635-1.593-1.089-2.661-1.361
		c-1.069-0.272-2.318-0.408-3.749-0.408h-0.242c-1.451,0-2.712,0.136-3.78,0.408c-1.068,0.272-1.955,0.726-2.661,1.361
		c-0.705,0.635-1.235,1.472-1.587,2.51c-0.353,1.038-0.529,2.323-0.529,3.855v6.198c0,1.533,0.176,2.818,0.529,3.856
		c0.352,1.038,0.882,1.874,1.587,2.509c0.706,0.635,1.593,1.089,2.661,1.361s2.329,0.408,3.78,0.408h0.242
		C695.894,38.749,697.143,38.613,698.212,38.341 M681.34,16.525c-0.111-0.161-0.298-0.242-0.559-0.242
		c-0.162,0-0.359,0.015-0.59,0.045c-0.232,0.031-0.454,0.071-0.665,0.121c-0.212,0.051-0.389,0.116-0.529,0.197
		c-0.142,0.081-0.212,0.161-0.212,0.242v8.98h-10.583V17.13c0-0.565-0.242-0.847-0.726-0.847c-0.161,0-0.358,0.01-0.589,0.03
		c-0.232,0.021-0.454,0.056-0.666,0.106c-0.211,0.051-0.388,0.111-0.529,0.181c-0.141,0.071-0.211,0.147-0.211,0.227v21.378
		c0,0.081,0.07,0.156,0.211,0.227c0.141,0.07,0.318,0.125,0.529,0.166c0.212,0.04,0.434,0.076,0.666,0.106
		c0.231,0.03,0.428,0.045,0.589,0.045c0.484,0,0.726-0.282,0.726-0.847v-9.615h10.583v9.888c0,0.101,0.07,0.186,0.212,0.257
		c0.14,0.07,0.317,0.125,0.529,0.166c0.211,0.04,0.433,0.076,0.665,0.106c0.231,0.03,0.428,0.045,0.59,0.045
		c0.483,0,0.725-0.282,0.725-0.847V17.16C681.505,16.898,681.45,16.686,681.34,16.525 M651.336,21.877
		c0.182-0.786,0.489-1.421,0.922-1.905c0.434-0.484,1.018-0.836,1.754-1.058s1.658-0.333,2.767-0.333h0.242
		c0.463,0,0.917,0.02,1.36,0.06c0.443,0.041,0.852,0.086,1.225,0.137c0.373,0.05,0.7,0.095,0.983,0.136
		c0.282,0.04,0.493,0.07,0.635,0.09c0.181,0.021,0.312-0.161,0.393-0.544c0.08-0.383,0.121-0.796,0.121-1.24
		c0-0.14-0.177-0.272-0.53-0.393c-0.352-0.121-0.786-0.221-1.3-0.302c-0.514-0.08-1.053-0.141-1.617-0.182
		c-0.565-0.04-1.069-0.06-1.512-0.06h-0.242c-1.391,0-2.606,0.136-3.644,0.408c-1.038,0.272-1.895,0.726-2.57,1.361
		c-0.675,0.635-1.184,1.472-1.527,2.51s-0.514,2.323-0.514,3.855v6.198c0,1.533,0.166,2.818,0.499,3.856
		c0.333,1.038,0.836,1.874,1.512,2.509c0.675,0.635,1.522,1.089,2.54,1.361c1.017,0.272,2.212,0.408,3.583,0.408h0.242
		c0.503,0,1.048-0.02,1.633-0.06c0.584-0.041,1.128-0.101,1.632-0.182c0.504-0.081,0.927-0.176,1.27-0.287
		c0.343-0.111,0.514-0.247,0.514-0.408c0-0.182-0.01-0.378-0.03-0.59c-0.02-0.212-0.056-0.413-0.106-0.605
		c-0.05-0.191-0.116-0.347-0.196-0.468c-0.081-0.121-0.182-0.171-0.303-0.151c-0.262,0.04-0.771,0.126-1.527,0.257
		c-0.756,0.131-1.638,0.196-2.645,0.196h-0.242c-1.089,0-1.991-0.11-2.706-0.333c-0.716-0.221-1.291-0.574-1.724-1.058
		c-0.434-0.484-0.736-1.119-0.907-1.905c-0.172-0.786-0.257-1.754-0.257-2.903V24.78C651.064,23.631,651.155,22.663,651.336,21.877
		 M631.864,36.179c-0.111,0.323-0.187,0.685-0.227,1.088c-0.02,0.242-0.01,0.409,0.03,0.499c0.04,0.091,0.202,0.187,0.484,0.288
		c0.283,0.101,0.636,0.191,1.061,0.272c0.424,0.08,0.879,0.151,1.364,0.211c0.484,0.061,0.98,0.111,1.485,0.152
		c0.505,0.04,0.98,0.06,1.425,0.06c0.929,0,1.833-0.086,2.712-0.257c0.879-0.171,1.662-0.463,2.349-0.877
		c0.687-0.413,1.233-0.972,1.637-1.678c0.404-0.705,0.606-1.592,0.606-2.661c0-1.189-0.242-2.207-0.726-3.054
		c-0.483-0.846-1.093-1.587-1.829-2.222c-0.736-0.635-1.527-1.204-2.373-1.709c-0.847-0.503-1.638-0.997-2.374-1.481
		c-0.736-0.484-1.346-0.998-1.829-1.542c-0.484-0.545-0.726-1.189-0.726-1.935c0-0.504,0.116-0.933,0.348-1.286
		c0.231-0.352,0.549-0.639,0.952-0.861c0.403-0.222,0.882-0.383,1.436-0.484c0.555-0.101,1.154-0.151,1.799-0.151
		c0.766,0,1.472,0.05,2.117,0.151c0.645,0.101,1.26,0.212,1.844,0.333c0.262,0.04,0.469-0.066,0.62-0.318
		c0.152-0.252,0.247-0.579,0.288-0.983c0.04-0.242,0.025-0.418-0.046-0.529c-0.071-0.11-0.227-0.216-0.468-0.317
		c-0.303-0.121-0.681-0.217-1.134-0.288c-0.454-0.07-0.913-0.13-1.376-0.181c-0.464-0.05-0.907-0.085-1.331-0.106
		c-0.423-0.02-0.766-0.03-1.028-0.03c-0.947,0-1.829,0.096-2.645,0.287c-0.817,0.192-1.531,0.489-2.142,0.892
		c-0.611,0.404-1.089,0.928-1.436,1.573c-0.347,0.645-0.519,1.421-0.519,2.328c0,1.109,0.241,2.056,0.725,2.842
		c0.484,0.786,1.094,1.487,1.83,2.102c0.735,0.615,1.527,1.169,2.373,1.663c0.847,0.494,1.638,0.997,2.374,1.511
		c0.735,0.514,1.345,1.074,1.829,1.679c0.484,0.604,0.726,1.32,0.726,2.146c0,0.646-0.141,1.17-0.424,1.573
		c-0.282,0.403-0.65,0.725-1.103,0.967c-0.454,0.242-0.968,0.409-1.542,0.499c-0.575,0.091-1.145,0.136-1.709,0.136
		c-0.504,0-1.003-0.025-1.496-0.075c-0.495-0.05-0.953-0.116-1.376-0.197c-0.423-0.08-0.812-0.161-1.164-0.242
		c-0.353-0.08-0.631-0.151-0.832-0.211C632.161,35.715,631.974,35.857,631.864,36.179 M607.66,16.797
		c-0.101-0.141-0.212-0.262-0.333-0.363c-0.121-0.1-0.262-0.151-0.423-0.151c-0.182,0-0.378,0.01-0.59,0.03
		c-0.212,0.021-0.419,0.056-0.62,0.106c-0.202,0.051-0.368,0.111-0.499,0.181c-0.131,0.071-0.196,0.147-0.196,0.227v21.408
		c0,0.101,0.07,0.181,0.211,0.242c0.141,0.06,0.313,0.111,0.514,0.151c0.202,0.04,0.413,0.071,0.635,0.091
		c0.222,0.02,0.413,0.03,0.575,0.03c0.222,0,0.398-0.081,0.529-0.242c0.131-0.161,0.197-0.352,0.197-0.574v-16.54l10.855,16.872
		c0.06,0.081,0.166,0.151,0.317,0.212c0.151,0.06,0.328,0.111,0.529,0.151c0.202,0.04,0.403,0.071,0.605,0.091
		c0.201,0.02,0.373,0.03,0.514,0.03c0.201,0,0.368-0.075,0.499-0.227c0.131-0.151,0.197-0.337,0.197-0.559V17.13
		c0-0.242-0.046-0.444-0.137-0.605c-0.09-0.161-0.247-0.242-0.468-0.242c-0.182,0-0.393,0.01-0.635,0.03
		c-0.242,0.021-0.469,0.051-0.681,0.091c-0.211,0.041-0.388,0.091-0.529,0.151c-0.141,0.061-0.211,0.131-0.211,0.212V33.7
		L607.66,16.797z M600.509,17.099c0-0.221-0.066-0.413-0.197-0.574c-0.131-0.161-0.307-0.242-0.529-0.242
		c-0.181,0-0.383,0.01-0.605,0.03c-0.222,0.021-0.438,0.056-0.65,0.106c-0.211,0.051-0.388,0.111-0.529,0.181
		c-0.141,0.071-0.211,0.147-0.211,0.227v21.408c0,0.101,0.07,0.181,0.211,0.242c0.141,0.06,0.318,0.111,0.529,0.151
		c0.212,0.04,0.428,0.071,0.65,0.091c0.222,0.02,0.424,0.03,0.605,0.03c0.222,0,0.398-0.081,0.529-0.242
		c0.131-0.161,0.197-0.352,0.197-0.574V17.099z M581.351,27.35l10.069,10.855c0.221,0.242,0.534,0.393,0.937,0.453
		c0.403,0.061,0.836,0.091,1.3,0.091c0.141,0,0.303-0.02,0.484-0.06c0.181-0.041,0.272-0.162,0.272-0.363
		c0-0.222-0.161-0.504-0.484-0.847l-9.706-10.432l8.86-9.494c0.342-0.363,0.514-0.645,0.514-0.847c0-0.201-0.091-0.322-0.272-0.363
		c-0.182-0.04-0.353-0.06-0.514-0.06c-0.444,0-0.873,0.03-1.285,0.091c-0.414,0.06-0.731,0.211-0.953,0.453l-9.222,9.948v-9.676
		c0-0.221-0.066-0.413-0.197-0.574c-0.131-0.161-0.307-0.242-0.529-0.242c-0.181,0-0.383,0.01-0.605,0.03
		c-0.222,0.021-0.438,0.056-0.65,0.106c-0.211,0.051-0.388,0.111-0.529,0.181c-0.141,0.071-0.212,0.147-0.212,0.227v21.408
		c0,0.101,0.071,0.181,0.212,0.242c0.141,0.06,0.318,0.111,0.529,0.151c0.212,0.04,0.428,0.071,0.65,0.091
		c0.222,0.02,0.424,0.03,0.605,0.03c0.222,0,0.398-0.081,0.529-0.242c0.131-0.161,0.197-0.352,0.197-0.574V27.35z M566.411,20.304
		c0.02-0.201,0.05-0.382,0.091-0.544c0,0.101,0.025,0.283,0.075,0.544c0.05,0.263,0.096,0.444,0.136,0.545l2.903,8.799h-6.259
		l2.933-8.799C566.35,20.688,566.39,20.506,566.411,20.304 M573.033,38.643c0.342,0.071,0.796,0.106,1.36,0.106
		c0.182,0,0.358-0.035,0.53-0.106c0.171-0.071,0.257-0.196,0.257-0.378c0-0.121-0.011-0.211-0.031-0.272l-7.257-21.136
		c-0.121-0.382-0.352-0.574-0.695-0.574c-0.383,0-0.801,0.035-1.255,0.106c-0.453,0.071-0.721,0.217-0.801,0.438l-7.287,21.166
		c-0.041,0.121-0.061,0.212-0.061,0.272c0,0.182,0.086,0.307,0.257,0.378c0.171,0.071,0.358,0.106,0.56,0.106
		c0.463,0,0.881-0.02,1.254-0.06c0.373-0.041,0.6-0.182,0.681-0.424l2.116-6.259h7.681l2.026,6.138
		C572.468,38.406,572.69,38.572,573.033,38.643 M542.031,38.235c0.282,0.101,0.554,0.151,0.816,0.151h11.4
		c0.08,0,0.151-0.06,0.211-0.181c0.061-0.121,0.111-0.272,0.151-0.454c0.041-0.181,0.071-0.372,0.091-0.574
		c0.02-0.201,0.03-0.383,0.03-0.544c0-0.202-0.07-0.363-0.211-0.484c-0.142-0.121-0.303-0.182-0.484-0.182h-9.706v-7.438h8.98
		c0.081,0,0.151-0.06,0.212-0.181c0.06-0.121,0.116-0.273,0.166-0.454s0.086-0.373,0.106-0.575c0.02-0.201,0.03-0.372,0.03-0.514
		c0-0.221-0.071-0.393-0.211-0.514c-0.142-0.121-0.313-0.181-0.514-0.181h-8.769v-7.045h9.918c0.08,0,0.151-0.061,0.211-0.182
		c0.061-0.121,0.111-0.272,0.151-0.453c0.041-0.182,0.071-0.373,0.091-0.575c0.02-0.201,0.03-0.382,0.03-0.544
		c0-0.222-0.07-0.388-0.211-0.499c-0.142-0.11-0.303-0.166-0.484-0.166h-11.702c-0.484,0-0.726,0.262-0.726,0.786v20.41
		C541.607,38.004,541.747,38.134,542.031,38.235 M531.672,19.352c0.726,0.212,1.315,0.559,1.769,1.043
		c0.453,0.484,0.776,1.114,0.967,1.89c0.192,0.776,0.288,1.719,0.288,2.827v4.778c0,1.108-0.096,2.051-0.288,2.827
		c-0.191,0.776-0.514,1.406-0.967,1.89c-0.454,0.483-1.043,0.831-1.769,1.043c-0.726,0.211-1.633,0.317-2.721,0.317h-4.143V19.035
		h4.143C530.039,19.035,530.945,19.14,531.672,19.352 M522.359,16.797c-0.181,0.121-0.272,0.323-0.272,0.605v20.44
		c0,0.162,0.136,0.292,0.408,0.393c0.272,0.101,0.549,0.151,0.832,0.151h5.624c1.451,0,2.711-0.136,3.779-0.408
		c1.069-0.272,1.955-0.726,2.661-1.361c0.705-0.635,1.229-1.471,1.572-2.509c0.343-1.038,0.515-2.323,0.515-3.856V24.78
		c0-1.532-0.172-2.817-0.515-3.856c-0.343-1.038-0.867-1.874-1.572-2.509c-0.706-0.635-1.592-1.094-2.661-1.376
		c-1.068-0.282-2.328-0.423-3.779-0.423h-5.987C522.742,16.616,522.54,16.676,522.359,16.797"/>
</g>
</svg>
